<svg width="48" height="48" viewBox="0 0 48 48" fill="none" xmlns="http://www.w3.org/2000/svg">
<path fill-rule="evenodd" clip-rule="evenodd" d="M1.5 10.5C1.5 5.52944 5.52944 1.5 10.5 1.5H37.5C42.4706 1.5 46.5 5.52944 46.5 10.5V31.5C46.5 36.4706 42.4706 40.5 37.5 40.5H29.9306L25.1289 45.9878C24.844 46.3133 24.4325 46.5 24 46.5C23.5675 46.5 23.156 46.3133 22.8711 45.9878L18.0694 40.5H10.5C5.52944 40.5 1.5 36.4706 1.5 31.5V10.5ZM24 10.5C24.7003 10.5 25.3074 10.9846 25.4627 11.6674L26.2926 15.3172C26.6765 17.0053 27.9946 18.3235 29.6828 18.7074L33.3326 19.5373C34.0154 19.6926 34.5 20.2997 34.5 21C34.5 21.7003 34.0154 22.3074 33.3326 22.4627L29.6828 23.2926C27.9946 23.6765 26.6765 24.9946 26.2926 26.6828L25.4627 30.3326C25.3074 31.0154 24.7003 31.5 24 31.5C23.2997 31.5 22.6926 31.0154 22.5373 30.3326L21.7074 26.6828C21.3235 24.9946 20.0054 23.6765 18.3172 23.2926L14.6674 22.4627C13.9846 22.3074 13.5 21.7003 13.5 21C13.5 20.2997 13.9846 19.6926 14.6674 19.5373L18.3172 18.7074C20.0054 18.3235 21.3235 17.0053 21.7074 15.3172L22.5373 11.6674C22.6926 10.9846 23.2997 10.5 24 10.5Z" fill="white"/>
</svg>
