<svg width="50" height="50" viewBox="0 0 50 50" fill="none" xmlns="http://www.w3.org/2000/svg">
<path d="M24.8798 18.2721C24.7188 18.0978 24.5578 18.0107 24.397 18.0107H22.8145V20.0491H24.4641C24.625 20.0491 24.7747 19.9599 24.9134 19.7809C25.0519 19.6022 25.1212 19.3518 25.1212 19.0299C25.1211 18.6991 25.0407 18.4464 24.8798 18.2721Z" fill="white"/>
<path d="M3.35254 7.26425V35.2041H46.6471V7.26425H3.35254ZM18.623 24.059C18.3323 24.3362 18.0016 24.5686 17.6306 24.7563C17.2595 24.9441 16.8615 25.0873 16.437 25.1855C16.0122 25.2838 15.5988 25.3331 15.1965 25.3331C14.49 25.3331 13.844 25.1923 13.2585 24.9106C12.6728 24.629 12.1676 24.2559 11.7431 23.7908C11.3183 23.326 10.9897 22.7983 10.7573 22.2083C10.5248 21.6182 10.4087 21.0193 10.4087 20.4112C10.4087 19.8302 10.5181 19.2579 10.7373 18.6946C10.9563 18.1313 11.2759 17.6264 11.6962 17.1791C12.1163 16.7321 12.6259 16.37 13.225 16.0929C13.8239 15.8158 14.5078 15.6771 15.277 15.6771C16.1977 15.6771 16.9956 15.8672 17.6708 16.2472C18.3457 16.6272 18.8486 17.1303 19.1796 17.756L17.1813 19.1775C17.0919 18.9452 16.9735 18.7529 16.826 18.6009C16.6785 18.4489 16.5152 18.3282 16.3365 18.2388C16.1575 18.1496 15.9722 18.0868 15.78 18.051C15.5876 18.0153 15.4022 17.9973 15.2233 17.9973C14.8479 17.9973 14.5236 18.071 14.2511 18.2185C13.9782 18.366 13.7549 18.5585 13.5805 18.7952C13.4062 19.0321 13.2764 19.3004 13.1916 19.5999C13.1065 19.8996 13.0642 20.1968 13.0642 20.4917C13.0642 20.8227 13.1133 21.14 13.2117 21.4438C13.31 21.7478 13.4531 22.0161 13.6409 22.2485C13.8287 22.481 14.0588 22.6666 14.3316 22.8051C14.6042 22.9437 14.9104 23.0129 15.2502 23.0129C15.429 23.0129 15.6123 22.9928 15.8001 22.9525C15.9879 22.9123 16.1688 22.8453 16.3433 22.7515C16.5177 22.6575 16.6739 22.5369 16.8127 22.3893C16.9512 22.2418 17.0608 22.0607 17.1413 21.8462L19.2736 23.1203C19.1304 23.4689 18.9135 23.782 18.623 24.059ZM25.4694 25.2526L23.793 22.3291H22.8139V25.2526H20.1987V15.7308H24.5708C25.0356 15.7308 25.4647 15.8269 25.8582 16.0191C26.2517 16.2115 26.5893 16.4617 26.8709 16.7701C27.1525 17.0786 27.3737 17.4318 27.5347 17.8296C27.6956 18.2274 27.7761 18.6275 27.7761 19.0299C27.7761 19.5844 27.6554 20.1007 27.414 20.5789C27.1727 21.0572 26.8373 21.4485 26.4081 21.7523L28.4198 25.2526H25.4694ZM36.4528 25.2526V20.2369L34.8569 23.764H33.4622L31.8662 20.2368V25.2525H29.2511V15.7307H32.1076L34.1595 20.21L36.2248 15.7307H39.0679V25.2526H36.4528Z" fill="white"/>
<path d="M47.7648 34.9999H2.23521C1.00074 34.9999 0 36.0007 0 37.2351C0 38.4696 1.00074 39.4703 2.23521 39.4703H47.7648C48.9993 39.4703 50 38.4696 50 37.2351C50 36.0007 48.9993 34.9999 47.7648 34.9999Z" fill="white"/>
</svg>
