<svg width="48" height="48" viewBox="0 0 48 48" fill="none" xmlns="http://www.w3.org/2000/svg">
<path fill-rule="evenodd" clip-rule="evenodd" d="M38.5716 29.4856L44.0573 34.7999C44.5716 35.3142 44.743 35.9999 44.4001 36.6856C44.2287 37.3713 43.543 37.7142 42.8573 37.7142H36.6859L30.343 44.057C30.0001 44.3999 29.6573 44.5713 29.143 44.5713C28.9716 44.5713 28.6287 44.5713 28.4573 44.3999C27.7716 44.2285 27.4287 43.5428 27.4287 42.857V34.2856C22.8001 34.2856 18.6859 32.2285 15.7716 28.9713C15.0859 29.1428 14.4001 29.1428 13.7144 29.1428C8.05728 29.1428 3.42871 24.5142 3.42871 18.857C3.42871 13.1999 8.05728 8.57133 13.7144 8.57133C14.4001 8.57133 15.0859 8.57133 15.6001 8.91419C18.343 5.65704 22.6287 3.5999 27.2573 3.5999C35.8287 3.5999 42.6859 10.457 42.6859 19.0285C42.6859 22.9713 41.143 26.7428 38.5716 29.4856ZM30.343 21.0856L36.1716 26.9142C38.2287 24.857 39.4287 21.9428 39.4287 18.857C39.4287 12.1713 34.1144 6.85704 27.4287 6.85704C24.1716 6.85704 21.2573 8.05704 19.2001 10.1142C22.1144 11.9999 24.0001 15.257 24.0001 18.857C24.0001 22.457 22.1144 25.7142 19.2001 27.5999C21.2573 29.657 24.1716 30.857 27.4287 30.857V22.2856C27.4287 21.5999 27.7716 20.9142 28.4573 20.7428C29.143 20.3999 29.8287 20.5713 30.343 21.0856Z" fill="white"/>
</svg>
