<svg width="214" height="142" viewBox="0 0 214 142" fill="none" xmlns="http://www.w3.org/2000/svg">
<path d="M41.8787 106.59C40.9459 103.102 39.8715 99.9925 39.3165 96.8001C35.5972 74.9741 42.4454 56.4941 57.4879 40.8044C65.3039 32.4359 75.5979 26.8032 86.8527 24.7364C97.4772 22.5906 108.519 24.5461 117.764 30.2106C125.739 35.0072 131.556 42.7039 133.998 51.6931C136.44 60.6823 135.32 70.2688 130.87 78.4502C126.654 85.9633 120.837 92.4544 113.832 97.4623C97.8691 109.713 78.0988 115.927 58.0075 115.008C56.8267 115.008 55.5161 115.008 53.7214 115.008C54.2378 115.918 54.8096 116.794 55.4335 117.633C63.2425 126.726 74.0049 132.767 85.8254 134.694C118.957 140.606 147.223 131.147 169.598 105.904C181.878 92.059 188.419 75.4825 187.427 56.6242C186.732 42.992 183.647 29.5886 178.312 17.0275C177.816 15.8451 177.202 14.7692 176.6 13.6578C176.364 13.2322 176.01 12.8657 175.419 12.0971C174.979 12.847 174.615 13.6392 174.333 14.4618C173.317 19.1321 172.385 23.8378 171.381 28.5081C171.165 29.8763 170.743 31.2038 170.129 32.4452C169.728 33.1546 168.417 33.9823 167.768 33.7931C166.906 33.5212 166.233 32.4216 165.655 31.5585C165.442 31.2274 165.655 30.5772 165.761 30.0924C167.579 21.4613 169.386 12.8302 171.263 4.21089C172.208 -0.116481 173.99 -0.932297 177.993 0.959451C178.939 1.39388 179.854 1.89161 180.732 2.44921C188.832 7.78158 196.967 13.0903 204.985 18.5172C207.442 20.2889 209.745 22.2666 211.868 24.429C212.857 25.4148 213.58 26.635 213.97 27.976C214.037 28.4444 213.991 28.9221 213.835 29.3688C213.679 29.8154 213.417 30.2177 213.073 30.5417C212.447 30.991 211.254 30.7072 210.322 30.6244C210.003 30.6244 209.684 30.2225 209.436 29.9505C203.273 23.0929 195.267 18.6237 187.77 13.6224C185.81 12.3218 183.814 11.0803 181.063 9.30679C181.248 10.0449 181.477 10.7714 181.748 11.4823C187.959 23.826 191.017 37.08 192.481 50.6651C195.633 79.7981 183.968 102.889 162.089 121.074C144.26 135.806 123.349 142.545 100.124 141.966C89.2503 141.9 78.5268 139.416 68.7285 134.694C60.2882 130.644 53.0634 124.437 47.7823 116.699C46.4072 114.627 44.2967 113.156 41.8787 112.584C36.7957 111.163 31.8518 109.284 27.1078 106.968C6.7638 96.3272 -3.16613 76.9604 0.895578 54.425C4.72114 33.1428 16.6701 17.6068 36.6717 8.86933C40.4264 7.23769 44.618 6.57558 48.6679 5.68882C50.1529 5.44084 51.6713 5.47695 53.1428 5.79523C53.4328 5.81103 53.7156 5.89078 53.9712 6.02872C54.2268 6.16666 54.4488 6.35938 54.6214 6.59319C54.7939 6.82699 54.9128 7.09608 54.9695 7.38122C55.0262 7.66636 55.0193 7.96052 54.9494 8.24269C54.7132 9.0585 53.7686 9.72062 53.1428 10.3591C52.9185 10.5719 52.4108 10.5128 52.0448 10.5364C40.2375 11.0567 30.7916 16.6255 22.7155 24.5354C11.8645 35.0819 5.90187 47.9339 5.65392 63.2689C5.44138 76.4993 10.613 87.2587 20.4485 95.8898C26.5965 101.179 33.9605 104.856 41.8787 106.59ZM61.9511 109.593C76.7797 109.56 91.3062 105.392 103.902 97.5569C111.79 92.6856 118.827 86.8448 124.105 79.065C136.656 60.585 127.08 38.7235 109.074 32.0551C99.9209 28.5076 89.7651 28.5667 80.6538 32.2206C62.6123 39.3147 51.5252 52.8406 45.964 71.0842C42.4482 82.4046 43.0846 94.6101 47.7587 105.502C48.0679 106.514 48.694 107.4 49.5445 108.028C50.3951 108.656 51.4248 108.993 52.4816 108.99C55.5988 109.144 58.7395 109.392 61.8802 109.593H61.9511Z" fill="#195AFF"/>
</svg>
