<svg width="42" height="40" viewBox="0 0 42 40" fill="none" xmlns="http://www.w3.org/2000/svg">
<path d="M12.5 39.4146C19.4035 39.4146 25 33.8182 25 26.9146C25 20.011 19.4035 14.4146 12.5 14.4146C5.59645 14.4146 0 20.011 0 26.9146C0 33.8182 5.59645 39.4146 12.5 39.4146Z" fill="white"/>
<path d="M35.0004 34C38.8666 34 42.0007 30.866 42.0007 27C42.0007 23.1339 38.8666 20 35.0004 20C31.1342 20 28 23.1339 28 27C28 30.866 31.1342 34 35.0004 34Z" fill="white"/>
<path d="M13.4687 11.619C15.6779 11.619 17.4688 9.82812 17.4688 7.61899C17.4688 5.40985 15.6779 3.61899 13.4687 3.61899C11.2596 3.61899 9.46875 5.40985 9.46875 7.61899C9.46875 9.82812 11.2596 11.619 13.4687 11.619Z" fill="white"/>
<path d="M29.5435 18C34.514 18 38.5435 13.9705 38.5435 9.00001C38.5435 4.02943 34.514 0 29.5435 0C24.5728 0 20.5435 4.02943 20.5435 9.00001C20.5435 13.9705 24.5728 18 29.5435 18Z" fill="white"/>
</svg>
