<svg width="24" height="24" viewBox="0 0 24 24" fill="none" xmlns="http://www.w3.org/2000/svg">
<path d="M21.25 6.25H2.75C1.92157 6.25 1.25 6.92157 1.25 7.75V10.25C1.25 11.0784 1.92157 11.75 2.75 11.75H21.25C22.0784 11.75 22.75 11.0784 22.75 10.25V7.75C22.75 6.92157 22.0784 6.25 21.25 6.25Z" fill="#965EEB"/>
<path d="M11.7299 7.75001H8.7299C7.99233 7.74643 7.27849 7.48897 6.70845 7.02091C6.13841 6.55286 5.74695 5.90278 5.5999 5.18001C5.49267 4.70075 5.49545 4.20342 5.60803 3.72538C5.72061 3.24735 5.94006 2.80105 6.2499 2.42001C6.63419 1.95212 7.14334 1.60286 7.71822 1.41279C8.29309 1.22272 8.91009 1.19965 9.49755 1.34626C10.085 1.49286 10.6188 1.80312 11.037 2.241C11.4551 2.67889 11.7405 3.22642 11.8599 3.82001L12.4699 6.82001C12.4888 6.93037 12.4843 7.04347 12.4568 7.15199C12.4292 7.26051 12.3792 7.36204 12.3099 7.45001C12.2421 7.5405 12.1547 7.61449 12.0543 7.66644C11.9538 7.71839 11.8429 7.74696 11.7299 7.75001ZM8.7299 2.75001C8.48208 2.75221 8.2377 2.80826 8.01369 2.91426C7.78967 3.02027 7.59138 3.1737 7.43253 3.36393C7.27369 3.55417 7.1581 3.77665 7.09375 4.01598C7.02941 4.25531 7.01786 4.50577 7.0599 4.75001C7.11667 5.1586 7.31676 5.53374 7.62448 5.80848C7.93219 6.08323 8.32751 6.23971 8.7399 6.25001H10.8199L10.3899 4.12001C10.3117 3.73437 10.1028 3.38751 9.7986 3.13794C9.49438 2.88837 9.11339 2.75136 8.7199 2.75001H8.7299Z" fill="#965EEB"/>
<path d="M15.2603 7.75H12.2603C12.1497 7.75054 12.0403 7.72662 11.94 7.67994C11.8398 7.63326 11.7511 7.56498 11.6803 7.48C11.611 7.39203 11.561 7.2905 11.5334 7.18198C11.5058 7.07345 11.5014 6.96036 11.5203 6.85L12.1303 3.84999C12.2974 3.01722 12.7884 2.28492 13.4954 1.8142C14.2024 1.34349 15.0675 1.17291 15.9003 1.33999C16.7331 1.50708 17.4653 1.99814 17.9361 2.70516C18.4068 3.41217 18.5774 4.27722 18.4103 5.11V5.21C18.2565 5.93059 17.8595 6.57634 17.2859 7.03884C16.7123 7.50135 15.9971 7.75245 15.2603 7.75ZM13.1803 6.25H15.2603C15.6538 6.24865 16.0347 6.11163 16.339 5.86206C16.6432 5.61249 16.852 5.26563 16.9303 4.88V4.78C16.9723 4.53576 16.9608 4.2853 16.8964 4.04597C16.8321 3.80664 16.7165 3.58415 16.5576 3.39392C16.3988 3.20369 16.2005 3.05026 15.9765 2.94425C15.7525 2.83825 15.5081 2.7822 15.2603 2.77999C14.8668 2.78134 14.4858 2.91836 14.1816 3.16793C13.8773 3.4175 13.6685 3.76436 13.5903 4.15L13.1803 6.25Z" fill="#965EEB"/>
<path d="M21.25 13.25V21C21.2474 21.4633 21.0622 21.9069 20.7345 22.2345C20.4069 22.5622 19.9633 22.7474 19.5 22.75H4.5C4.03668 22.7474 3.59309 22.5622 3.26546 22.2345C2.93784 21.9069 2.75263 21.4633 2.75 21V13.25H21.25Z" fill="#965EEB"/>
</svg>
