<svg width="192" height="49" viewBox="0 0 192 49" fill="none" xmlns="http://www.w3.org/2000/svg">
<g clip-path="url(#clip0_20_3335)">
<mask id="mask0_20_3335" style="mask-type:luminance" maskUnits="userSpaceOnUse" x="0" y="0" width="192" height="49">
<path d="M192 0H0V49H192V0Z" fill="white"/>
</mask>
<g mask="url(#mask0_20_3335)">
<path d="M73.3922 1.15222L56.8276 44.5764H65.7295L69.1672 35.507H86.7542L90.1755 44.5764H99.0098L82.5067 1.15222H73.3922ZM72.1835 27.5375L77.9791 12.2571L83.7419 27.5375H72.1835Z" fill="black"/>
<path d="M176.245 13.521C173.13 13.521 170.086 14.4476 167.496 16.1838C164.907 17.9198 162.889 20.3874 161.698 23.2743C160.505 26.1613 160.194 29.3381 160.801 32.4029C161.408 35.4677 162.908 38.283 165.111 40.4925C167.312 42.7022 170.118 44.207 173.173 44.8167C176.227 45.4262 179.394 45.1134 182.271 43.9175C185.148 42.7216 187.607 40.6967 189.337 38.0984C191.068 35.5002 191.991 32.4454 191.991 29.3207C191.991 25.1303 190.332 21.1116 187.38 18.1487C184.427 15.1856 180.421 13.521 176.245 13.521ZM176.245 37.0193C174.728 37.0193 173.245 36.5679 171.984 35.7223C170.722 34.8765 169.739 33.6744 169.158 32.268C168.577 30.8617 168.425 29.3141 168.722 27.8211C169.018 26.3282 169.748 24.9567 170.821 23.8804C171.894 22.8039 173.26 22.0709 174.748 21.7739C176.236 21.4769 177.779 21.6293 179.181 22.2119C180.581 22.7944 181.781 23.781 182.624 25.0466C183.465 26.3123 183.915 27.8004 183.915 29.3227C183.918 30.3338 183.72 31.3355 183.336 32.2699C182.95 33.2044 182.386 34.0535 181.673 34.7686C180.961 35.4837 180.114 36.0506 179.182 36.4368C178.252 36.8229 177.253 37.0209 176.245 37.0193Z" fill="black"/>
<path d="M109.617 33.3772L102.427 14.0688H93.936L105.509 44.5764H113.932L125.298 14.0688H116.807L109.617 33.3772Z" fill="black"/>
<path d="M152.004 5.96179H143.924V14.0688H139.2V21.3531H143.924V34.3395C143.924 41.6914 147.965 44.8513 153.648 44.8513C155.575 44.8793 157.488 44.5047 159.264 43.7515V36.1944C158.297 36.5518 157.278 36.7413 156.249 36.7546C153.796 36.7546 152.004 35.7922 152.004 32.4948V21.3531H159.264V14.0688H152.004V5.96179Z" fill="black"/>
<path d="M131.94 11.8713C135.193 11.8713 137.83 9.22552 137.83 5.96181C137.83 2.69812 135.193 0.0523682 131.94 0.0523682C128.687 0.0523682 126.05 2.69812 126.05 5.96181C126.05 9.22552 128.687 11.8713 131.94 11.8713Z" fill="black"/>
<path d="M135.981 14.0688H127.901V44.5764H135.981V14.0688Z" fill="black"/>
<path d="M15.8028 48.9058C24.5015 48.9058 31.5533 41.8302 31.5533 33.1021C31.5533 24.3739 24.5015 17.2985 15.8028 17.2985C7.10401 17.2985 0.0522461 24.3739 0.0522461 33.1021C0.0522461 41.8302 7.10401 48.9058 15.8028 48.9058Z" fill="#04E061"/>
<path d="M43.1259 46.9114C48.3822 46.9114 52.6433 42.6359 52.6433 37.3618C52.6433 32.0878 48.3822 27.8124 43.1259 27.8124C37.8695 27.8124 33.6084 32.0878 33.6084 37.3618C33.6084 42.6359 37.8695 46.9114 43.1259 46.9114Z" fill="#FF4053"/>
<path d="M18.8148 15.2385C22.0677 15.2385 24.7045 12.5927 24.7045 9.32901C24.7045 6.06531 22.0677 3.41956 18.8148 3.41956C15.5621 3.41956 12.9253 6.06531 12.9253 9.32901C12.9253 12.5927 15.5621 15.2385 18.8148 15.2385Z" fill="#965EEB"/>
<path d="M39.4288 25.7503C46.5012 25.7503 52.2346 19.9976 52.2346 12.9014C52.2346 5.80504 46.5012 0.0523682 39.4288 0.0523682C32.3563 0.0523682 26.623 5.80504 26.623 12.9014C26.623 19.9976 32.3563 25.7503 39.4288 25.7503Z" fill="#00AAFF"/>
</g>
</g>
<defs>
<clipPath id="clip0_20_3335">
<rect width="192" height="49" fill="white"/>
</clipPath>
</defs>
</svg>
