<svg width="86" height="86" viewBox="0 0 86 86" fill="none" xmlns="http://www.w3.org/2000/svg">
<g clip-path="url(#clip0_20_3678)">
<rect width="86" height="86" rx="43" fill="#202020"/>
<rect width="86" height="86" rx="43" fill="#195AFF"/>
<path d="M43.1058 69.3127C43.2378 69.5233 43.3109 69.7655 43.3175 70.014C43.324 70.2625 43.2638 70.5082 43.143 70.7255C43.0223 70.9428 42.8455 71.1237 42.6311 71.2495C42.4166 71.3752 42.1724 71.4411 41.9238 71.4403H38.3916V90.3389C38.3906 90.7074 38.2437 91.0605 37.9831 91.321C37.7226 91.5816 37.3695 91.7285 37.001 91.7295H25.876C25.5075 91.7284 25.1545 91.5816 24.8939 91.321C24.6333 91.0605 24.4865 90.7074 24.4854 90.3389V71.4403H20.9532C20.7046 71.4411 20.4604 71.3752 20.2459 71.2495C20.0315 71.1237 19.8547 70.9428 19.734 70.7255C19.6133 70.5082 19.553 70.2625 19.5596 70.014C19.5661 69.7655 19.6392 69.5233 19.7712 69.3127L30.2565 52.6808C30.3915 52.4935 30.5691 52.3411 30.7746 52.2359C30.9801 52.1307 31.2077 52.0759 31.4385 52.0759C31.6694 52.0759 31.8969 52.1307 32.1024 52.2359C32.3079 52.3411 32.4855 52.4935 32.6205 52.6808L43.1058 69.3127ZM59.6821 32.6836C59.5471 32.4963 59.3695 32.3438 59.164 32.2386C58.9585 32.1335 58.7309 32.0786 58.5001 32.0786C58.2692 32.0786 58.0416 32.1335 57.8361 32.2386C57.6306 32.3438 57.4531 32.4963 57.318 32.6836L46.8327 49.3155C46.7008 49.5261 46.6277 49.7683 46.6212 50.0168C46.6146 50.2653 46.6749 50.511 46.7956 50.7283C46.9163 50.9456 47.0931 51.1265 47.3075 51.2522C47.522 51.378 47.7662 51.4439 48.0148 51.4431H51.5469V90.3389C51.548 90.7074 51.6949 91.0605 51.9555 91.321C52.216 91.5816 52.5691 91.7284 52.9376 91.7295H64.0626C64.431 91.7284 64.7841 91.5816 65.0447 91.321C65.3052 91.0605 65.4521 90.7074 65.4532 90.3389V51.4431H68.9854C69.234 51.4439 69.4782 51.378 69.6926 51.2522C69.907 51.1265 70.0838 50.9456 70.2045 50.7283C70.3253 50.511 70.3855 50.2653 70.379 50.0168C70.3724 49.7683 70.2994 49.5261 70.1674 49.3155L59.6821 32.6836ZM97.229 34.4219L86.7437 17.79C86.6086 17.6028 86.431 17.4503 86.2255 17.3451C86.02 17.24 85.7925 17.1851 85.5616 17.1851C85.3308 17.1851 85.1032 17.24 84.8977 17.3451C84.6922 17.4503 84.5146 17.6028 84.3796 17.79L73.8943 34.4219C73.7623 34.6325 73.6893 34.8747 73.6827 35.1232C73.6762 35.3717 73.7364 35.6174 73.8571 35.8347C73.9778 36.052 74.1546 36.2329 74.3691 36.3587C74.5835 36.4844 74.8277 36.5503 75.0763 36.5495H78.6085V90.3389C78.6096 90.7074 78.7564 91.0605 79.017 91.321C79.2776 91.5816 79.6306 91.7285 79.9991 91.7295H91.1241C91.4926 91.7284 91.8457 91.5816 92.1062 91.321C92.3668 91.0605 92.5137 90.7074 92.5148 90.3389V36.5495H96.0469C96.2955 36.5503 96.5397 36.4844 96.7542 36.3586C96.9686 36.2329 97.1454 36.052 97.2661 35.8347C97.3868 35.6174 97.4471 35.3717 97.4405 35.1232C97.434 34.8747 97.3609 34.6325 97.229 34.4219Z" fill="url(#paint0_linear_20_3678)"/>
</g>
<defs>
<linearGradient id="paint0_linear_20_3678" x1="51.4543" y1="47.7135" x2="84.5218" y2="82.2615" gradientUnits="userSpaceOnUse">
<stop stop-color="white"/>
<stop offset="1" stop-color="#B2C8FF"/>
</linearGradient>
<clipPath id="clip0_20_3678">
<rect width="86" height="86" rx="43" fill="white"/>
</clipPath>
</defs>
</svg>
