<svg width="86" height="86" viewBox="0 0 86 86" fill="none" xmlns="http://www.w3.org/2000/svg">
<g clip-path="url(#clip0_20_3681)">
<rect width="86" height="86" rx="43" fill="#195AFF"/>
<path d="M-3.9375 24.5H-10.9688C-14.8597 24.5 -18 27.6405 -18 31.5312V92.4688C-18 96.3595 -14.8597 99.5 -10.9688 99.5H54.9688C58.8597 99.5 62 96.3595 62 92.4688V38.5625L-3.9375 24.5Z" fill="url(#paint0_linear_20_3681)"/>
<path d="M54.9685 24.5H-3.93773V31.5312C-3.93773 35.422 -0.797422 38.5625 3.09352 38.5625H61.9998V31.5312C61.9998 27.6405 58.8595 24.5 54.9685 24.5ZM49.8593 51.1739L43.3774 50.2309L40.4774 44.3578C40.0837 43.5567 39.2301 43.1562 38.3763 43.1562C37.5226 43.1562 36.6688 43.5567 36.2752 44.3578L33.3752 50.2309L26.8955 51.1739C26.0121 51.302 25.2796 51.92 25.0027 52.7692C24.728 53.6161 24.957 54.5477 25.5955 55.1702L30.2854 59.7433L29.1799 66.1978C29.0288 67.0767 29.3905 67.9648 30.1115 68.4889C30.8348 69.0153 31.7938 69.0863 32.5812 68.6675L38.3765 65.6211L44.1763 68.6675C44.9543 69.08 45.9171 69.0195 46.6437 68.4889C47.3646 67.9648 47.7263 67.0767 47.5752 66.1978L46.4674 59.7433L51.1595 55.1702C51.798 54.5477 52.027 53.6161 51.7523 52.7692C51.4752 51.92 50.7427 51.302 49.8593 51.1739ZM45.4373 76.0625H26.6873C25.3918 76.0625 24.3435 77.1108 24.3435 78.4062C24.3435 79.7017 25.3918 80.75 26.6873 80.75H45.4373C46.7327 80.75 47.781 79.7017 47.781 78.4062C47.781 77.1108 46.7327 76.0625 45.4373 76.0625ZM45.4373 85.4375H26.6873C25.3918 85.4375 24.3435 86.4858 24.3435 87.7812C24.3435 89.0767 25.3918 90.125 26.6873 90.125H45.4373C46.7327 90.125 47.781 89.0767 47.781 87.7812C47.781 86.4858 46.7327 85.4375 45.4373 85.4375ZM17.3123 57.3125H-1.43773C-2.7332 57.3125 -3.78148 58.3608 -3.78148 59.6562C-3.78148 60.9517 -2.7332 62 -1.43773 62H17.3123C18.6077 62 19.656 60.9517 19.656 59.6562C19.656 58.3608 18.6077 57.3125 17.3123 57.3125ZM17.3123 47.9375H-1.43773C-2.7332 47.9375 -3.78148 48.9858 -3.78148 50.2812C-3.78148 51.5767 -2.7332 52.625 -1.43773 52.625H17.3123C18.6077 52.625 19.656 51.5767 19.656 50.2812C19.656 48.9858 18.6077 47.9375 17.3123 47.9375ZM7.58023 67.7884C6.72414 66.4197 4.46289 66.4197 3.6068 67.7884L-8.11195 86.5384C-8.56508 87.2617 -8.58805 88.1727 -8.17602 88.9166C-7.7618 89.6627 -6.97664 90.125 -6.12523 90.125H17.3123C18.1637 90.125 18.9488 89.6627 19.363 88.9166C19.7751 88.1727 19.7521 87.2617 19.299 86.5384L7.58023 67.7884Z" fill="url(#paint1_linear_20_3681)"/>
</g>
<defs>
<linearGradient id="paint0_linear_20_3681" x1="14.7626" y1="55.2149" x2="47.9949" y2="90.6628" gradientUnits="userSpaceOnUse">
<stop stop-color="white"/>
<stop offset="1" stop-color="#B2C8FF"/>
</linearGradient>
<linearGradient id="paint1_linear_20_3681" x1="9.66414" y1="50.7224" x2="27.4513" y2="81.2722" gradientUnits="userSpaceOnUse">
<stop stop-color="#195AFF"/>
<stop offset="1" stop-color="#A9C2FF"/>
</linearGradient>
<clipPath id="clip0_20_3681">
<rect width="86" height="86" rx="43" fill="white"/>
</clipPath>
</defs>
</svg>
