<svg width="86" height="86" viewBox="0 0 86 86" fill="none" xmlns="http://www.w3.org/2000/svg">
<g clip-path="url(#clip0_20_3704)">
<rect width="86" height="86" rx="43" fill="#195AFF"/>
<g clip-path="url(#clip1_20_3704)">
<path d="M22.124 63.8762H2.23662L-7.70707 81.7747L-9.69569 83.7633C-12.997 87.0647 -12.997 92.3943 -9.69569 95.6958C-6.39457 98.997 -1.0647 98.9971 2.2368 95.6958L4.22543 93.7072L22.124 83.7635V63.8762ZM-11.1584 76.5838C-10.2417 76.409 -9.47463 75.7935 -9.10376 74.9368C-7.02176 70.1282 -2.39369 63.0375 3.27931 55.97C3.85418 55.2513 4.04262 54.2979 3.78031 53.4142C3.2435 51.5953 1.49637 51.4554 1.13712 51.2643C0.58362 51.0798 -12.5937 46.8868 -25.606 59.8991C-35.437 69.7301 -29.8263 75.5662 -29.5834 75.809C-28.4841 76.9083 -26.7051 76.9083 -25.606 75.809C-22.3159 72.5192 -16.9636 72.5192 -13.6735 75.809C-13.0152 76.4672 -12.0732 76.7567 -11.1584 76.5838ZM32.5861 82.2198C31.7024 81.9577 30.7488 82.146 30.0303 82.7208C22.7163 88.59 15.8139 93.0995 11.0868 95.0921C10.2245 95.4571 9.59918 96.2263 9.41843 97.1448C9.24162 98.0634 9.52924 99.0112 10.1915 99.6735C13.4814 102.963 13.4814 108.316 10.1915 111.606C9.09218 112.705 9.09218 114.484 10.1915 115.583C10.4343 115.826 16.2704 121.437 26.1014 111.606C39.1137 98.5937 34.9207 85.4163 34.7362 84.8668C34.5537 84.5242 34.4009 82.7527 32.5861 82.2198ZM62.6941 25.6925C62.4954 24.4595 61.5408 23.505 60.3074 23.3058C59.5917 23.2262 48.9717 21.8342 35.687 25.7319L43.9106 41.9103L60.2679 50.3128C64.1658 37.0282 62.7736 26.4082 62.6941 25.6925ZM26.1014 43.9888C21.7261 48.3641 21.7261 55.5234 26.1014 59.8987C30.5163 64.3136 37.6361 64.274 42.0114 59.8987C46.4262 55.4838 46.4262 48.4037 42.0114 43.9888C37.6361 39.6135 30.5165 39.5739 26.1014 43.9888Z" fill="url(#paint0_linear_20_3704)"/>
<path d="M35.6873 25.7321C26.9766 28.2382 17.1524 33.0507 8.20298 42.0001C5.25961 44.9435 2.03761 48.563 -1.10452 52.4208C-7.07077 59.8985 -12.0028 67.4559 -14.2301 72.7061C-14.7075 73.7403 -14.5085 74.9733 -13.6732 75.8086L-7.70695 81.7749L6.21417 67.8535C9.51548 64.5522 14.8452 64.5522 18.1467 67.8535C21.4875 71.1944 21.4875 76.445 18.1467 79.786L4.22554 93.7072L10.1918 99.6734C10.9872 100.469 12.2202 100.747 13.2542 100.27C18.4647 98.0825 25.863 93.3093 33.5792 87.1045C37.437 83.9624 41.0569 80.7406 44.0001 77.7974C52.9495 68.848 57.762 59.0238 60.2678 50.3129L35.6873 25.7321ZM42.0115 59.8987C37.6362 64.274 30.5166 64.3136 26.1015 59.8987C21.7262 55.5234 21.7262 48.3641 26.1015 43.9887C30.5164 39.5739 37.6362 39.6134 42.0115 43.9887C46.4264 48.4036 46.4264 55.4838 42.0115 59.8987ZM-13.6365 99.6757C-14.7358 98.5765 -16.5146 98.5765 -17.6139 99.6757L-32.1755 114.198C-33.2748 115.297 -33.2748 117.076 -32.1755 118.176C-31.0762 119.275 -29.2972 119.275 -28.1981 118.176L-13.6365 103.653C-12.5371 102.554 -12.5371 100.775 -13.6365 99.6757ZM-9.65902 107.631L-13.6365 111.608C-14.7358 112.707 -14.7358 114.486 -13.6365 115.585C-12.5371 116.685 -10.7581 116.685 -9.65902 115.585L-5.68158 111.608C-4.58227 110.509 -4.58227 108.73 -5.68158 107.631C-6.78089 106.531 -8.5597 106.531 -9.65902 107.631ZM-25.569 99.6757L-21.5915 95.6982C-20.4922 94.5989 -20.4922 92.8199 -21.5915 91.7208C-22.6908 90.6215 -24.4698 90.6215 -25.569 91.7208L-29.5464 95.6982C-30.6457 96.7974 -30.6457 98.5765 -29.5464 99.6757C-28.4471 100.775 -26.6681 100.775 -25.569 99.6757Z" fill="url(#paint1_linear_20_3704)"/>
</g>
</g>
<defs>
<linearGradient id="paint0_linear_20_3704" x1="7.2622" y1="61.6582" x2="49.176" y2="103.572" gradientUnits="userSpaceOnUse">
<stop stop-color="white"/>
<stop offset="1" stop-color="#B2C8FF"/>
</linearGradient>
<linearGradient id="paint1_linear_20_3704" x1="-8.99994" y1="63" x2="17.1328" y2="104.798" gradientUnits="userSpaceOnUse">
<stop stop-color="#195AFF"/>
<stop offset="1" stop-color="#A9C2FF"/>
</linearGradient>
<clipPath id="clip0_20_3704">
<rect width="86" height="86" rx="43" fill="white"/>
</clipPath>
<clipPath id="clip1_20_3704">
<rect width="96" height="96" fill="white" transform="translate(-33 23)"/>
</clipPath>
</defs>
</svg>
