<svg width="86" height="86" viewBox="0 0 86 86" fill="none" xmlns="http://www.w3.org/2000/svg">
<g clip-path="url(#clip0_20_3713)">
<rect width="86" height="86" rx="43" fill="#195AFF"/>
<g clip-path="url(#clip1_20_3713)">
<path d="M38.846 64.5852L32.5077 70.9383C28.3515 67.8359 24.9522 63.8578 22.5327 59.2711C20.039 54.5953 18.7921 49.4297 18.7921 43.8039C18.7921 41.1172 19.1187 38.4305 19.8015 35.8328C20.0835 34.7344 20.4249 33.6508 20.8108 32.5969C21.2413 31.4242 19.8163 30.4594 18.8663 31.261C15.5562 34.0516 12.7655 37.4063 10.6132 41.1766C7.62959 46.3867 6.13037 52.1906 6.13037 58.5883C6.13037 63.932 7.19912 68.8899 9.35146 73.4766C11.4444 77.9742 14.4429 82.0117 18.1687 85.2922L11.8304 91.6305C11.0585 92.4024 11.0585 93.6492 11.8304 94.4211C12.2015 94.7922 12.7062 95 13.2257 95H40.2562C41.3397 95 42.2304 94.1242 42.2304 93.0258V65.9805C42.2304 64.8969 41.3546 64.0063 40.2562 64.0063C39.7218 64.0063 39.2171 64.2141 38.846 64.5852Z" fill="url(#paint0_linear_20_3713)"/>
<path d="M66.6037 40.5383C64.4959 36.0555 61.5123 32.0328 57.8459 28.7078L64.1842 22.3695C64.9561 21.5977 64.9561 20.3508 64.1842 19.5789C63.8131 19.2078 63.3084 19 62.7889 19H35.7584C34.6748 19 33.7842 19.8906 33.7842 20.9742V48.0047C33.7842 49.0883 34.6748 49.9789 35.7584 49.9789C36.2779 49.9789 36.7826 49.7711 37.1537 49.4L43.492 43.0617C47.6928 46.1195 51.1217 50.1125 53.5264 54.7289C55.9904 59.4047 57.2225 64.5703 57.2225 70.1961C57.2225 72.8828 56.9107 75.5547 56.2725 78.1672C56.0053 79.2508 55.6787 80.3195 55.3076 81.3734C54.892 82.5461 56.317 83.5109 57.2521 82.7094C60.5178 79.9188 63.2639 76.5789 65.4014 72.8383C68.3998 67.6281 69.8842 61.8094 69.8842 55.4117C69.8842 50.068 68.7857 45.1102 66.6037 40.5383Z" fill="url(#paint1_linear_20_3713)"/>
</g>
</g>
<defs>
<linearGradient id="paint0_linear_20_3713" x1="15.4198" y1="56.553" x2="35.2705" y2="74.4528" gradientUnits="userSpaceOnUse">
<stop stop-color="#195AFF"/>
<stop offset="1" stop-color="#A9C2FF"/>
</linearGradient>
<linearGradient id="paint1_linear_20_3713" x1="48.5683" y1="45.2117" x2="72.8894" y2="58.9294" gradientUnits="userSpaceOnUse">
<stop stop-color="white"/>
<stop offset="1" stop-color="#B2C8FF"/>
</linearGradient>
<clipPath id="clip0_20_3713">
<rect width="86" height="86" rx="43" fill="white"/>
</clipPath>
<clipPath id="clip1_20_3713">
<rect width="76" height="76" fill="white" transform="translate(0 19)"/>
</clipPath>
</defs>
</svg>
