<svg width="86" height="86" viewBox="0 0 86 86" fill="none" xmlns="http://www.w3.org/2000/svg">
<g clip-path="url(#clip0_20_3690)">
<rect width="86" height="86" rx="43" fill="#195AFF"/>
<g clip-path="url(#clip1_20_3690)">
<path d="M102.918 64C102.665 78.0224 100.203 89.3001 93.1431 96.1431C86.3001 103.203 75.0224 105.665 61 105.918C46.9776 105.665 35.6999 103.203 28.8569 96.1431C21.7973 89.3001 19.3347 78.0224 19.082 64C19.3347 49.9776 21.7973 38.6999 28.8569 31.8569C35.6999 24.7973 46.9776 22.3347 61 22.082C75.0224 22.3347 86.3001 24.7973 93.1431 31.8569C100.203 38.6999 102.665 49.9776 102.918 64Z" fill="url(#paint0_linear_20_3690)"/>
<path d="M102.918 64C102.665 78.0224 100.203 89.3001 93.1431 96.1431C86.3001 103.203 75.0224 105.665 61 105.918C46.9776 105.665 35.6999 103.203 28.8569 96.1431C21.7973 89.3001 19.3347 78.0224 19.082 64C19.3347 49.9776 21.7973 38.6999 28.8569 31.8569C35.6999 24.7973 46.9776 22.3347 61 22.082C75.0224 22.3347 86.3001 24.7973 93.1431 31.8569C100.203 38.6999 102.665 49.9776 102.918 64Z" fill="url(#paint1_linear_20_3690)"/>
<path d="M82.2278 45.2181C80.4773 44.0959 78.6021 43.1526 76.6284 42.4127C73.3767 41.1937 69.8559 40.5276 66.1792 40.5276C62.5026 40.5276 58.9818 41.1937 55.7301 42.4127C48.5835 45.0902 42.7396 50.4353 39.4124 57.2374C37.4814 61.1831 36.397 65.6193 36.397 70.3099C36.397 86.7588 49.7303 100.094 66.1792 100.094C82.6281 100.094 95.9615 86.7588 95.9615 70.3099C95.9615 59.7705 90.4884 50.5108 82.2278 45.2181ZM61.0014 56.8042C64.975 56.8042 68.1972 60.0264 68.1972 64C68.1972 67.9752 64.975 71.1958 61.0014 71.1958C57.0262 71.1958 53.8056 67.9752 53.8056 64C53.8056 60.0264 57.0262 56.8042 61.0014 56.8042Z" fill="url(#paint2_radial_20_3690)"/>
<path fill-rule="evenodd" clip-rule="evenodd" d="M52.0572 42.4126L57.7497 36.7197C59.5446 34.9265 62.455 34.9265 64.2499 36.7197L69.9424 42.4126H77.9918C80.5298 42.4126 82.5872 44.4699 82.5872 47.008V55.0582L88.2785 60.7499C90.0733 62.5447 90.0733 65.4552 88.2785 67.2484L82.5872 72.9405V80.9919C82.5872 83.5299 80.5298 85.5873 77.9918 85.5873H69.9421L64.2499 91.2803C62.455 93.0751 59.5446 93.0751 57.7497 91.2803L52.0575 85.5873H44.0079C41.4698 85.5873 39.4125 83.5299 39.4125 80.9919V72.9405L33.7211 67.2484C31.9263 65.4552 31.9263 62.5447 33.7211 60.7499L39.4125 55.0582V47.008C39.4125 44.4699 41.4698 42.4126 44.0079 42.4126H52.0572ZM60.9998 71.1957C60.7223 71.1957 60.4486 71.18 60.1793 71.1495C59.9557 71.1241 59.7352 71.0884 59.5182 71.043C56.2552 70.3598 53.804 67.4657 53.804 63.9999C53.804 63.8953 53.8063 63.7912 53.8107 63.6876C53.8151 63.5841 53.8217 63.4811 53.8305 63.3787C53.8586 63.0504 53.9087 62.7285 53.9794 62.4143C54.0815 61.9604 54.2265 61.5227 54.4099 61.1058C54.8536 60.0972 55.522 59.2098 56.3517 58.507C57.6057 57.4448 59.228 56.8042 60.9998 56.8042C61.3413 56.8042 61.6772 56.828 62.006 56.874C62.0625 56.8819 62.1188 56.8905 62.1749 56.8997C64.4031 57.2658 66.2869 58.6558 67.327 60.5703C67.6594 61.182 67.9056 61.8474 68.0494 62.5499C68.0973 62.7841 68.1339 63.0225 68.1584 63.2643C68.1647 63.3263 68.1702 63.3884 68.1749 63.4508C68.1886 63.6321 68.1955 63.8152 68.1955 64C68.1955 64.0815 68.1942 64.1626 68.1915 64.2435C68.1871 64.3782 68.1789 64.512 68.1671 64.6447C67.8841 67.8308 65.5237 70.4204 62.4499 71.0495C62.2742 71.0855 62.0962 71.115 61.9162 71.1379C61.7626 71.1574 61.6076 71.1721 61.4512 71.1818C61.3019 71.191 61.1514 71.1957 60.9998 71.1957Z" fill="url(#paint3_linear_20_3690)"/>
</g>
</g>
<defs>
<linearGradient id="paint0_linear_20_3690" x1="28.5855" y1="31.5855" x2="93.1152" y2="96.1152" gradientUnits="userSpaceOnUse">
<stop stop-color="#D4BDFF"/>
<stop offset="1" stop-color="#8655FF"/>
</linearGradient>
<linearGradient id="paint1_linear_20_3690" x1="53.4156" y1="56.4156" x2="90.6405" y2="93.6405" gradientUnits="userSpaceOnUse">
<stop stop-color="white"/>
<stop offset="1" stop-color="#B2C8FF"/>
</linearGradient>
<radialGradient id="paint2_radial_20_3690" cx="0" cy="0" r="1" gradientUnits="userSpaceOnUse" gradientTransform="translate(66.1787 70.31) scale(29.7828 29.7828)">
<stop stop-color="#6A47D6"/>
<stop offset="1" stop-color="#6A47D6" stop-opacity="0"/>
</radialGradient>
<linearGradient id="paint3_linear_20_3690" x1="47.1067" y1="58.2513" x2="63.1483" y2="83.9083" gradientUnits="userSpaceOnUse">
<stop stop-color="#195AFF"/>
<stop offset="1" stop-color="#A9C2FF"/>
</linearGradient>
<clipPath id="clip0_20_3690">
<rect width="86" height="86" rx="43" fill="white"/>
</clipPath>
<clipPath id="clip1_20_3690">
<rect width="84" height="84" fill="white" transform="translate(19 22)"/>
</clipPath>
</defs>
</svg>
