<svg width="36" height="36" viewBox="0 0 36 36" fill="none" xmlns="http://www.w3.org/2000/svg">
<path d="M2 7.74953V8.50282C2 12.4773 4.65749 15.8099 8.40014 16.7452C9.63857 20.378 12.8325 23.0903 16.7082 23.5909V26.3495C14.7228 26.7675 13.0155 28.114 12.1768 30.0377L11.2483 32.1662C11.0717 32.5706 11.1095 33.0369 11.3479 33.4068C11.5864 33.7768 11.9938 34 12.4303 34H23.5697C24.0061 34 24.4136 33.7768 24.6521 33.4068C24.8905 33.0369 24.9283 32.5706 24.7517 32.1662L23.8232 30.0384C22.9845 28.1141 21.2772 26.7676 19.2918 26.3496V23.5909C23.1675 23.0903 26.3614 20.378 27.5999 16.7452C31.3425 15.8099 34 12.4773 34 8.50282V7.74953C34 6.62118 33.0917 5.70268 31.9765 5.70268H28.1604V3.3063C28.1604 2.5849 27.5826 2 26.8686 2H9.13144C8.41741 2 7.83963 2.5849 7.83963 3.3063V5.70268H4.0235C2.9083 5.70268 2 6.62118 2 7.74953ZM28.1604 13.4098V8.31529H31.4164V8.50282C31.4164 10.8266 30.1038 12.8322 28.1408 13.7991C28.1457 13.6688 28.1604 13.5412 28.1604 13.4098ZM21.4591 31.0927L21.5878 31.3874H14.4122L14.5409 31.0921C15.1452 29.7067 16.5026 28.8118 18 28.8118C19.4974 28.8118 20.8548 29.7067 21.4591 31.0927ZM10.4232 4.61261H25.5768V13.4098C25.5768 17.6342 22.1782 21.0709 18 21.0709C13.8218 21.0709 10.4232 17.6342 10.4232 13.4098V4.61261ZM4.58362 8.31529H7.83963V13.4098C7.83963 13.5412 7.85429 13.6688 7.85918 13.7991C5.89624 12.8322 4.58362 10.8266 4.58362 8.50282V8.31529Z" fill="#151515"/>
</svg>
