<svg width="36" height="36" viewBox="0 0 36 36" fill="none" xmlns="http://www.w3.org/2000/svg">
<g clip-path="url(#clip0_20_3744)">
<path d="M14.5151 0.00189209C13.8518 0.00189209 13.3151 0.538607 13.3151 1.20187V7.03174C5.87196 7.64529 0.000418768 13.888 0.000418768 21.4868C-0.0905037 33.7148 14.6451 40.5435 23.8898 32.557C23.8897 32.5572 25.5482 34.2156 25.5482 34.2156C25.9952 34.6806 26.8011 34.681 27.2474 34.2132C30.3548 31.0918 32.1641 27.034 32.4495 22.6868H34.8C35.4633 22.6868 36 22.1501 36 21.4868C36 9.64045 26.3614 0.00189209 14.5151 0.00189209ZM14.5151 33.6015C-0.840754 33.0662 -1.8299 11.4376 13.3152 9.42952C13.3151 9.42953 13.3151 21.4868 13.3151 21.4868C13.3479 21.8002 13.4353 22.1066 13.6682 22.3368C13.6682 22.3368 22.1929 30.8607 22.1929 30.8607C20.0227 32.6358 17.338 33.6015 14.5151 33.6015ZM26.3626 31.6363L17.4122 22.6868H30.0622C29.8126 25.9985 28.527 29.1074 26.3626 31.6363ZM15.7151 20.2868V2.43937C25.2857 3.03585 32.9661 10.7162 33.5625 20.2868H15.7151Z" fill="black"/>
</g>
<defs>
<clipPath id="clip0_20_3744">
<rect width="36" height="36" fill="white"/>
</clipPath>
</defs>
</svg>
