<svg width="36" height="36" viewBox="0 0 36 36" fill="none" xmlns="http://www.w3.org/2000/svg">
<path d="M28.5 1.875H7.5C4.395 1.875 1.875 4.395 1.875 7.5V22.5C1.875 25.605 4.395 28.125 7.5 28.125H13.875C13.875 29.7 13.05 31.11 11.7 31.875H9C8.385 31.875 7.875 32.385 7.875 33C7.875 33.615 8.385 34.125 9 34.125H27C27.615 34.125 28.125 33.615 28.125 33C28.125 32.385 27.615 31.875 27 31.875H24.3C22.95 31.11 22.125 29.7 22.125 28.14C22.125 26.58 28.5 28.125 28.5 28.125C31.605 28.125 34.125 25.605 34.125 22.5V7.5C34.125 4.395 31.605 1.875 28.5 1.875ZM21.06 31.875H14.925C15.675 30.795 16.11 29.52 16.11 28.14C16.11 26.76 19.86 28.125 19.86 28.125C19.86 29.52 20.295 30.795 21.045 31.875H21.06ZM31.875 22.5C31.875 24.36 30.36 25.875 28.5 25.875H7.5C5.64 25.875 4.125 24.36 4.125 22.5V7.5C4.125 5.64 5.64 4.125 7.5 4.125H28.5C30.36 4.125 31.875 5.64 31.875 7.5V22.5ZM26.355 6.645C25.92 6.21 25.2 6.21 24.765 6.645L23.745 7.665C23.745 7.665 23.625 7.605 23.565 7.59L19.785 6.555C18.615 6.225 17.355 6.57 16.5 7.425L10.32 13.605C9 14.925 9 17.085 10.32 18.405L14.595 22.68C15.255 23.34 16.125 23.67 16.995 23.67C17.865 23.67 18.735 23.34 19.395 22.68L25.575 16.5C26.43 15.645 26.775 14.385 26.445 13.215L25.41 9.435C25.41 9.435 25.35 9.315 25.335 9.255L26.355 8.235C26.79 7.8 26.79 7.08 26.355 6.645ZM24.285 13.8C24.39 14.19 24.285 14.625 23.985 14.91L17.805 21.09C17.355 21.54 16.635 21.54 16.185 21.09L11.91 16.815C11.46 16.365 11.46 15.645 11.91 15.195L18.09 9.015C18.3 8.805 18.6 8.685 18.9 8.685C19.005 8.685 19.095 8.685 19.2 8.73L21.945 9.48L20.52 10.905C20.085 11.34 20.085 12.06 20.52 12.495C20.745 12.72 21.03 12.825 21.315 12.825C21.6 12.825 21.885 12.72 22.11 12.495L23.535 11.07L24.285 13.815V13.8Z" fill="black"/>
</svg>
