<svg width="36" height="36" viewBox="0 0 36 36" fill="none" xmlns="http://www.w3.org/2000/svg">
<path d="M32.5301 11.62C31.1046 10.1945 28.785 10.1945 27.3594 11.62L18.2193 20.7601C16.7078 22.2716 15.7662 24.201 15.5018 26.2877H14.3796C13.8766 24.869 12.5211 23.8502 10.9322 23.8502C8.91608 23.8502 7.27588 25.4904 7.27588 27.5065C7.27588 28.1796 7.82152 28.7253 8.49464 28.7253C9.16776 28.7253 9.7134 28.1796 9.7134 27.5065C9.7134 26.8345 10.2601 26.2877 10.9322 26.2877C11.6042 26.2877 12.1509 26.8345 12.1509 27.5065C12.1509 28.1796 12.6965 28.7253 13.3697 28.7253H16.6436C19.1921 28.7253 21.5881 27.7328 23.3901 25.9308C23.9155 25.4054 32.0076 17.3133 32.5302 16.7907C33.9557 15.3652 33.9557 13.0456 32.5301 11.62ZM21.6664 24.2073C20.6476 25.2261 19.3737 25.8974 17.9887 26.1614C18.2527 24.7765 18.924 23.5026 19.9429 22.4837L25.2615 17.1651L26.985 18.8887L21.6664 24.2073ZM30.8066 15.0672L28.7087 17.165L26.9851 15.4414L29.083 13.3436C29.5583 12.8684 30.3314 12.8684 30.8066 13.3436C31.2829 13.8198 31.2829 14.5908 30.8066 15.0672Z" fill="black"/>
<path d="M25.5573 27.6972C24.8842 27.6972 24.3385 28.2428 24.3385 28.9159V29.9437C24.3385 30.6157 23.7918 31.1625 23.1198 31.1625H6.05715C5.38513 31.1625 4.8384 30.6157 4.8384 29.9437V6.05605C4.8384 5.38403 5.38513 4.8373 6.05715 4.8373H19.6726C19.9982 4.8373 20.3042 4.96411 20.5344 5.19427L23.9816 8.64147C24.1284 8.78827 24.2359 8.97151 24.2925 9.17138C24.4759 9.81903 25.1495 10.1954 25.7972 10.0121C26.4448 9.82872 26.8213 9.15511 26.6379 8.50746C26.4682 7.90796 26.1456 7.3583 25.7052 6.9179L22.258 3.4707C21.5674 2.78009 20.6492 2.39978 19.6726 2.39978H6.05715C4.04108 2.39978 2.40088 4.03998 2.40088 6.05605V29.9437C2.40088 31.9598 4.04108 33.6 6.05715 33.6H23.1198C25.1358 33.6 26.776 31.9598 26.776 29.9437V28.9159C26.776 28.2428 26.2304 27.6972 25.5573 27.6972Z" fill="black"/>
</svg>
