<svg width="36" height="36" viewBox="0 0 36 36" fill="none" xmlns="http://www.w3.org/2000/svg">
<path d="M30.9265 29.4582H6.54242V5.07407C6.54242 4.26408 5.87868 3.60034 5.07432 3.60034C4.26433 3.60034 3.60059 4.26408 3.60059 5.07407V30.9319C3.60059 31.7362 4.26433 32.4 5.07432 32.4H30.9321C31.7421 32.4 32.4059 31.7362 32.4059 30.9263C32.4059 30.1163 31.7365 29.4582 30.9265 29.4582Z" fill="black"/>
<path d="M22.3152 17.2633C21.5671 17.539 20.729 16.8752 20.1102 16.5433C18.119 15.3902 15.5653 15.8965 14.1815 17.7415L9.42285 24.0301C8.93348 24.677 9.06285 25.6051 9.70972 26.0945C10.3566 26.5838 11.2847 26.4545 11.7741 25.8076L16.5328 19.5189C17.3259 18.3939 18.6984 19.0296 19.5927 19.6652C21.7133 20.9645 24.717 20.1264 25.8814 17.9327L28.8682 12.5384L29.3295 14.0121C29.577 14.794 30.4263 15.2215 31.1913 14.9796C31.9732 14.7321 32.4007 13.8996 32.1588 13.1178L30.6457 8.3422C30.4151 7.5772 29.5489 7.14409 28.7839 7.37471L23.9802 8.88781C22.1352 9.43343 23.0577 12.3078 24.8577 11.7172L26.1683 11.3009L23.2827 16.5096C23.0802 16.8752 22.7314 17.1621 22.3152 17.2633Z" fill="black"/>
</svg>
