<svg width="27" height="27" viewBox="0 0 27 27" fill="none" xmlns="http://www.w3.org/2000/svg">
<g clip-path="url(#clip0_20_3431)">
<circle cx="14.25" cy="14.25" r="8.25" fill="white"/>
<path d="M26.3444 11.9089L24.503 10.0678C24.0659 9.63075 23.7078 8.76708 23.7078 8.1477V5.54389C23.7078 4.30527 22.6959 3.29341 21.4577 3.29275H18.8528C18.2341 3.29275 17.3695 2.93395 16.9324 2.49724L15.0912 0.656111C14.2164 -0.218704 12.7841 -0.218704 11.9092 0.656111L10.0681 2.49855C9.63068 2.9356 8.76503 3.29341 8.1477 3.29341H5.54389C4.30691 3.29341 3.29373 4.30527 3.29373 5.54389V8.14777C3.29373 8.76471 2.93566 9.63108 2.49855 10.0679L0.657094 11.909C-0.21838 12.7838 -0.21838 14.2162 0.657094 15.0924L2.49855 16.9335C2.93592 17.3705 3.29373 18.2366 3.29373 18.8536V21.4575C3.29373 22.6948 4.30691 23.7079 5.54389 23.7079H8.14776C8.76641 23.7079 9.63108 24.066 10.0682 24.5028L11.9093 26.3446C12.7841 27.2187 14.2165 27.2187 15.0913 26.3446L16.9324 24.5028C17.3699 24.0658 18.2342 23.7079 18.8529 23.7079H21.4577C22.696 23.7079 23.7079 22.6948 23.7079 21.4575V18.8536C23.7079 18.2339 24.0663 17.3703 24.5031 16.9335L26.3445 15.0924C27.2186 14.2162 27.2186 12.7837 26.3444 11.9089ZM11.7142 18.5629L6.74981 13.5978L8.34084 12.0071L11.7146 15.3809L18.6594 8.43768L20.2501 10.0284L11.7142 18.5629Z" fill="#195AFF"/>
</g>
<defs>
<clipPath id="clip0_20_3431">
<rect width="27" height="27" fill="white"/>
</clipPath>
</defs>
</svg>
