<svg width="69" height="60" viewBox="0 0 69 60" fill="none" xmlns="http://www.w3.org/2000/svg">
<g clip-path="url(#clip0_20_2688)">
<path d="M6.89349 37.889L0 41.5623L34.4847 59.9378L68.9694 41.5623L62.0533 37.877L57.9297 40.0743L60.722 41.5623L34.4847 55.5431L8.24739 41.5623L10.9707 40.111L6.89349 37.889Z" fill="#2C2C2C"/>
<path d="M25.878 27.7759L29.9889 29.9608L15.0136 37.9569L10.8898 35.7595L25.878 27.7759Z" fill="#2C2C2C"/>
<path d="M43.1192 27.7639L39.0043 29.9689L53.9945 37.9569L58.1182 35.7596L43.1192 27.7639Z" fill="#2C2C2C"/>
<path d="M0 30.006L34.4847 48.3815L68.9694 30.006L62.0533 26.3208L57.9297 28.5181L60.722 30.006L34.4847 43.9868L8.24739 30.006L10.9707 28.5549L6.89349 26.3328L0 30.006Z" fill="#2C2C2C"/>
<path d="M34.511 11.6206L58.0528 24.1868L53.9304 26.3848L34.4849 16.0252L34.511 11.6206Z" fill="#2C2C2C"/>
<path d="M34.511 11.6206L10.9453 24.1828L15.0678 26.3809L34.5433 16.0031L34.511 11.6206Z" fill="#2C2C2C"/>
<path fill-rule="evenodd" clip-rule="evenodd" d="M34.4847 36.7509L0 18.3755L34.4847 0L68.9694 18.3755L34.4847 36.7509ZM34.4847 32.3563L8.24739 18.3755L34.4847 4.3947L60.722 18.3755L34.4847 32.3563Z" fill="#2C2C2C"/>
</g>
<defs>
<clipPath id="clip0_20_2688">
<rect width="69" height="60" fill="white"/>
</clipPath>
</defs>
</svg>
