<svg width="107" height="51" viewBox="0 0 107 51" fill="none" xmlns="http://www.w3.org/2000/svg">
<path d="M26.7834 22.7697V40.2141H23.5324V21.5464L26.7834 22.7697Z" fill="#151515"/>
<path d="M13.8215 21.1601C13.8215 16.6973 16.2388 14.2725 19.083 14.2725C21.9279 14.2725 22.3339 14.6805 25.543 16.3111C28.7513 17.9416 29.5858 18.3497 31.2112 18.3497C32.8367 18.3497 33.6285 17.1264 33.6285 14.7022H36.4518C36.8585 19.573 34.0345 21.5898 31.1903 21.5898C28.3453 21.5898 27.5543 21.1818 24.7303 19.573C21.907 17.9634 21.0942 17.5344 19.4688 17.5344C17.8433 17.5344 17.0515 18.7577 16.6455 21.5898L13.8215 21.1601Z" fill="#151515"/>
<path d="M25.5639 50.7709C11.7032 50.7709 0.495361 39.5061 0.495361 25.6236C0.495361 11.7412 11.7032 0.45459 25.5639 0.45459C39.4246 0.45459 50.6324 11.7194 50.6324 25.6019C50.6324 39.5061 39.4029 50.7492 25.5639 50.7709ZM25.5639 2.08517C12.602 2.08517 2.09915 12.6202 2.09915 25.6236C2.09915 38.627 12.6012 49.1621 25.5639 49.1621C38.5266 49.1621 49.0286 38.627 49.0286 25.6236C49.007 12.6202 38.5049 2.08517 25.5639 2.08517Z" fill="#151515"/>
<path d="M56.8263 16.6082C57.9022 16.6082 58.7875 17.497 58.7875 18.5755C58.7875 19.6541 57.9015 20.5429 56.8263 20.5429C55.7504 20.5429 54.8651 19.6541 54.8651 18.5755C54.8651 17.497 55.7504 16.6082 56.8263 16.6082ZM58.155 24.5421V40.3461H55.4341V24.5421H58.155Z" fill="#151515"/>
<path d="M66.4431 12.6096V40.346H63.7223V12.6096H66.4431Z" fill="#151515"/>
<path d="M83.9697 12.6096H86.6905V40.346H83.9697V38.1244C83.0837 39.3305 81.376 40.7901 78.5916 40.7901C74.6056 40.7901 70.936 37.9977 70.936 32.4121C70.936 26.9541 74.6056 24.161 78.5916 24.161C81.6287 24.161 83.2736 25.811 83.9697 26.7628V12.6096ZM73.7196 32.4121C73.7196 35.776 75.618 38.3779 78.9078 38.3779C82.2612 38.3779 84.1596 35.5855 84.1596 32.4751C84.1596 28.4129 81.376 26.6361 78.9078 26.6361C76.187 26.5731 73.7196 28.6042 73.7196 32.4121Z" fill="#151515"/>
<path d="M104.279 24.5422H107V40.3462H104.279V38.1246C103.393 39.3307 101.685 40.7902 98.901 40.7902C94.9151 40.7902 91.2454 37.9978 91.2454 32.4123C91.2454 26.9543 94.9151 24.1611 98.901 24.1611C101.938 24.1611 103.583 25.8112 104.279 26.763V24.5422ZM94.0291 32.4123C94.0291 35.7762 95.9275 38.3781 99.2173 38.3781C102.571 38.3781 104.469 35.5857 104.469 32.4753C104.469 28.4131 101.685 26.6363 99.2173 26.6363C96.4972 26.5733 94.0291 28.6044 94.0291 32.4123Z" fill="#151515"/>
</svg>
