<svg width="208" height="48" viewBox="0 0 208 48" fill="none" xmlns="http://www.w3.org/2000/svg">
<g clip-path="url(#clip0_20_2714)">
<path d="M120.636 18.8936H112.448V19.777C115.009 19.777 115.421 20.3352 115.421 23.6386V29.5938C115.421 32.8967 115.01 33.5016 112.448 33.5016C110.482 33.2227 109.155 32.1524 107.325 30.1054L105.221 27.7795C108.057 27.2671 109.566 25.4532 109.566 23.4059C109.566 20.8477 107.417 18.8936 103.391 18.8936H95.3411V19.777C97.9022 19.777 98.3139 20.3352 98.3139 23.6386V29.5938C98.3139 32.8967 97.9022 33.5016 95.3411 33.5016V34.3854H104.443V33.5016C101.882 33.5016 101.471 32.8967 101.471 29.5938V27.9194H102.248L107.325 34.3854H120.636C127.177 34.3854 130.013 30.8502 130.013 26.616C130.013 22.3826 127.177 18.8936 120.636 18.8936ZM101.471 26.4761V20.2894H103.346C105.404 20.2894 106.319 21.7315 106.319 23.4063C106.319 25.0348 105.404 26.4765 103.346 26.4765L101.471 26.4761ZM120.774 32.9434H120.453C118.807 32.9434 118.578 32.525 118.578 30.3848V20.2894C118.578 20.2894 120.591 20.2894 120.774 20.2894C125.531 20.2894 126.399 23.8247 126.399 26.5698C126.399 29.4073 125.53 32.9434 120.774 32.9434Z" fill="#151515"/>
<path d="M69.8642 28.1983L73.0204 18.7071C73.9356 15.9624 73.5238 15.1718 70.5964 15.1718V14.241H79.1956V15.1718C76.3141 15.1718 75.6281 15.8695 74.4844 19.2657L69.2694 35.1764H68.6751L64.0089 20.6146L59.2523 35.1764H58.6576L53.5804 19.2657C52.4827 15.8695 51.7508 15.1718 49.0977 15.1718V14.241H59.2523V15.1718C56.5533 15.1718 55.8211 15.8229 56.7821 18.7071L59.8466 28.1983L64.4665 14.241H65.3359L69.8642 28.1983Z" fill="#151515"/>
<path d="M85.4156 34.9899C80.3843 34.9899 76.2675 31.2219 76.2675 26.6156C76.2675 22.0566 80.3847 18.2878 85.4156 18.2878C90.4473 18.2878 94.5638 22.0566 94.5638 26.6156C94.5638 31.2219 90.4473 34.9899 85.4156 34.9899ZM85.4156 19.7311C81.2078 19.7311 79.7438 23.5919 79.7438 26.6159C79.7438 29.687 81.2078 33.5016 85.4156 33.5016C89.67 33.5016 91.1337 29.687 91.1337 26.6159C91.1337 23.5919 89.67 19.7311 85.4156 19.7311Z" fill="#151515"/>
<path d="M141.311 33.4551V34.3856H130.836V33.4551C133.901 33.4551 134.45 32.6646 134.45 28.0116V20.5685C134.45 15.9155 133.901 15.1716 130.836 15.1716V14.2407H140.304C145.015 14.2407 147.623 16.7065 147.623 20.0102C147.623 23.2203 145.015 25.7323 140.304 25.7323H137.697V28.0112C137.697 32.6646 138.246 33.4551 141.311 33.4551ZM140.304 15.9155H137.697V24.0109H140.304C142.866 24.0109 144.055 22.1967 144.055 20.0102C144.055 17.7772 142.866 15.9155 140.304 15.9155Z" fill="#151515"/>
<path d="M179.047 30.0126L178.818 30.8498C178.407 32.3851 177.903 32.9434 174.655 32.9434H174.015C171.637 32.9434 171.225 32.3851 171.225 29.0821V26.9423C174.793 26.9423 175.067 27.2675 175.067 29.687H175.936V22.7548H175.067C175.067 25.1739 174.793 25.4995 171.225 25.4995V20.2894H173.74C176.988 20.2894 177.491 20.8477 177.903 22.383L178.132 23.2664H178.863L178.544 18.8936H165.095V19.777C167.656 19.777 168.069 20.3352 168.069 23.6386V29.5938C168.069 32.6155 167.719 33.3766 165.699 33.4852C163.78 33.187 162.462 32.1222 160.659 30.1054L158.555 27.7795C161.391 27.2671 162.901 25.4532 162.901 23.4059C162.901 20.8477 160.751 18.8936 156.726 18.8936H148.675V19.777C151.236 19.777 151.648 20.3352 151.648 23.6386V29.5938C151.648 32.8967 151.237 33.5016 148.675 33.5016V34.3854H157.778V33.5016C155.217 33.5016 154.805 32.8967 154.805 29.5938V27.9194H155.582L160.66 34.3854H179.459L179.734 30.013L179.047 30.0126ZM154.804 26.4761V20.2894H156.679C158.738 20.2894 159.653 21.7315 159.653 23.4063C159.653 25.0348 158.738 26.4765 156.679 26.4765L154.804 26.4761Z" fill="#151515"/>
<path d="M188.332 34.99C186.502 34.99 184.901 34.0133 184.215 33.408C183.986 33.6411 183.575 34.3389 183.484 34.99H182.614V28.5705H183.529C183.896 31.6408 185.999 33.4551 188.698 33.4551C190.162 33.4551 191.351 32.6179 191.351 31.2224C191.351 30.013 190.299 29.0822 188.424 28.1984L185.816 26.9424C183.986 26.0578 182.614 24.5225 182.614 22.4759C182.614 20.2428 184.673 18.3357 187.509 18.3357C189.018 18.3357 190.299 18.894 191.077 19.5451C191.305 19.359 191.534 18.847 191.672 18.2883H192.541V23.7785H191.58C191.259 21.5917 190.07 19.7774 187.646 19.7774C186.366 19.7774 185.176 20.5218 185.176 21.6853C185.176 22.8947 186.137 23.5458 188.332 24.5695L190.848 25.8255C193.044 26.8954 193.912 28.6176 193.912 30.013C193.912 32.9434 191.397 34.99 188.332 34.99Z" fill="#151515"/>
<path d="M202.42 34.99C200.59 34.99 198.989 34.0133 198.303 33.408C198.075 33.6411 197.663 34.3389 197.572 34.99H196.703V28.5705H197.617C197.983 31.6408 200.087 33.4551 202.786 33.4551C204.25 33.4551 205.439 32.6179 205.439 31.2224C205.439 30.013 204.387 29.0822 202.512 28.1984L199.904 26.9424C198.075 26.0578 196.702 24.5225 196.702 22.4759C196.702 20.2428 198.761 18.3357 201.597 18.3357C203.106 18.3357 204.387 18.894 205.165 19.5451C205.393 19.359 205.622 18.847 205.759 18.2883H206.628V23.7785H205.668C205.347 21.5917 204.158 19.7774 201.734 19.7774C200.453 19.7774 199.264 20.5218 199.264 21.6853C199.264 22.8947 200.224 23.5458 202.42 24.5695L204.935 25.8255C207.131 26.8954 208 28.6176 208 30.013C208 32.9434 205.484 34.99 202.42 34.99Z" fill="#151515"/>
<path d="M3.35425 23.9994C3.35425 32.1488 8.01075 39.1916 14.763 42.529L5.10684 15.6204C3.98364 18.1809 3.35425 21.0145 3.35425 23.9994Z" fill="#151515"/>
<path d="M37.2628 22.9604C37.2628 20.4159 36.3642 18.6537 35.5934 17.2821C34.5673 15.5862 33.6055 14.15 33.6055 12.4541C33.6055 10.5614 35.0168 8.79969 37.0047 8.79969C37.0945 8.79969 37.1796 8.81105 37.267 8.81614C33.6656 5.4603 28.8673 3.41138 23.5972 3.41138C16.5252 3.41138 10.3033 7.10179 6.68372 12.6915C7.15865 12.706 7.60623 12.7161 7.98641 12.7161C10.1038 12.7161 13.3813 12.4548 13.3813 12.4548C14.4725 12.3894 14.6012 14.0195 13.5111 14.1508C13.5111 14.1508 12.4145 14.282 11.1942 14.3471L18.5659 36.6482L22.9959 23.1351L19.842 14.3463C18.752 14.2812 17.7193 14.15 17.7193 14.15C16.6284 14.085 16.7563 12.3886 17.8472 12.4541C17.8472 12.4541 21.1902 12.7154 23.1793 12.7154C25.2962 12.7154 28.5742 12.4541 28.5742 12.4541C29.6662 12.3886 29.7944 14.0188 28.704 14.15C28.704 14.15 27.605 14.2812 26.3871 14.3463L33.7025 36.4785L35.7217 29.616C36.5968 26.7683 37.2628 24.7229 37.2628 22.9604Z" fill="#151515"/>
<path d="M23.9524 25.8003L17.8788 43.7505C19.6922 44.2927 21.6101 44.5893 23.5972 44.5893C25.9546 44.5893 28.2152 44.1748 30.3195 43.4222C30.2652 43.334 30.2159 43.2404 30.1754 43.1386L23.9524 25.8003Z" fill="#151515"/>
<path d="M41.3597 14.1216C41.4467 14.7774 41.496 15.4814 41.496 16.2387C41.496 18.3279 41.1124 20.6766 39.9568 23.6132L33.7734 41.7961C39.7916 38.2268 43.8395 31.5954 43.8395 23.9999C43.8399 20.4204 42.9408 17.0543 41.3597 14.1216Z" fill="#151515"/>
<path d="M23.5972 0C10.586 0 0 10.766 0 23.9994C0 37.2343 10.586 48 23.5972 48C36.608 48 47.1956 37.2343 47.1956 23.9994C47.1952 10.766 36.608 0 23.5972 0ZM23.5972 46.8999C11.1827 46.8999 1.08199 36.6267 1.08199 23.9994C1.08199 11.3729 11.1823 1.10046 23.5972 1.10046C36.0113 1.10046 46.1113 11.3729 46.1113 23.9994C46.1113 36.6267 36.0113 46.8999 23.5972 46.8999Z" fill="#151515"/>
</g>
<defs>
<clipPath id="clip0_20_2714">
<rect width="208" height="48" fill="white"/>
</clipPath>
</defs>
</svg>
