<svg width="32" height="32" viewBox="0 0 32 32" fill="none" xmlns="http://www.w3.org/2000/svg">
<rect width="32" height="32" rx="7" fill="#496ECD"/>
<path d="M16.9638 18.2135L17.5931 15.0144C17.5931 14.9422 17.6024 14.8699 17.6115 14.8001C17.6548 14.4644 17.691 14.1844 16.6491 14.2278H15.7051L14.9185 18.3184C14.9185 18.3184 14.9185 18.4757 14.7087 18.4757H13.1879C13.0305 18.4757 13.0305 18.3184 13.0305 18.3184L14.4989 10.9239C14.4989 10.9239 14.4989 10.819 14.7087 10.819H16.282C16.4394 10.819 16.3869 10.9763 16.3869 10.9763L16.0198 12.7594H17.3833C19.2713 12.7594 19.7433 13.6509 19.586 14.6998L18.9042 18.3184C18.9042 18.3184 18.9042 18.4757 18.642 18.4757L17.1211 18.4233C16.9113 18.4233 16.9638 18.2135 16.9638 18.2135Z" fill="white"/>
<path fill-rule="evenodd" clip-rule="evenodd" d="M10.8279 12.7069H7.78619C7.75214 12.7049 7.71839 12.7141 7.69001 12.733C7.66164 12.752 7.64018 12.7796 7.62886 12.8118L6.21289 20.2063C6.21289 20.3636 6.37022 20.3636 6.37022 20.3636H7.94352C8.10085 20.3636 8.10085 20.2587 8.10085 20.2587L8.46796 18.4232H9.88393C12.0866 18.4232 13.1879 16.9548 13.4501 15.6437C13.7123 14.3326 13.5025 12.7069 10.8279 12.7069ZM11.5097 15.5388C11.2999 16.5352 10.6181 16.9548 9.67415 16.9548H8.73017L9.30705 14.1753H10.251C11.667 14.1753 11.6146 14.6997 11.5097 15.5388Z" fill="white"/>
<path fill-rule="evenodd" clip-rule="evenodd" d="M20.3202 12.7069H23.3619C26.0365 12.7069 26.2463 14.3326 25.9841 15.6437C25.7218 16.9548 24.6205 18.4232 22.4179 18.4232H21.0019L20.6348 20.2587C20.6348 20.2587 20.6348 20.3636 20.4775 20.3636H18.9042C18.9042 20.3636 18.7469 20.3636 18.7469 20.2063L20.1628 12.8118C20.1741 12.7796 20.1956 12.752 20.224 12.733C20.2524 12.7141 20.2861 12.7049 20.3202 12.7069ZM22.2081 16.9548C23.1521 16.9548 23.8339 16.5352 24.0436 15.5388C24.1485 14.6997 24.201 14.1753 22.785 14.1753H21.841L21.2641 16.9548H22.2081Z" fill="white"/>
</svg>
