<svg width="32" height="32" viewBox="0 0 32 32" fill="none" xmlns="http://www.w3.org/2000/svg">
<rect width="32" height="32" rx="7" fill="#6186AF"/>
<g clip-path="url(#clip0_44_6533)">
<path d="M7 16C7 13.6131 7.94821 11.3239 9.63604 9.63604C11.3239 7.94821 13.6131 7 16 7C18.3869 7 20.6761 7.94821 22.364 9.63604C24.0518 11.3239 25 13.6131 25 16C25 18.3869 24.0518 20.6761 22.364 22.364C20.6761 24.0518 18.3869 25 16 25C13.6131 25 11.3239 24.0518 9.63604 22.364C7.94821 20.6761 7 18.3869 7 16Z" fill="#486D97"/>
<path fill-rule="evenodd" clip-rule="evenodd" d="M14.5287 24.8784C12.7248 24.5821 11.0544 23.7422 9.74072 22.4709L17.8497 15.0279L13.2147 16.1529C12.9079 16.2283 12.5892 16.2419 12.2771 16.1929C11.9649 16.1439 11.6657 16.0332 11.3968 15.8673C11.1279 15.7014 10.8947 15.4837 10.7108 15.2268C10.5269 14.9699 10.396 14.679 10.3257 14.3709C10.1832 13.7442 10.2924 13.0865 10.6299 12.5395C10.9674 11.9925 11.5061 11.5998 12.1302 11.4459L21.7782 9.10144C22.9532 10.0854 23.8576 11.353 24.4054 12.7843C24.9533 14.2156 25.1266 15.7631 24.909 17.2801C24.6913 18.7972 24.0898 20.2335 23.1616 21.4529C22.2333 22.6724 21.009 23.6346 19.6047 24.2484C19.5777 23.9289 19.6092 23.5959 19.7217 23.2719L21.2517 18.7089L14.5287 24.8784Z" fill="#FFD43C"/>
</g>
<defs>
<clipPath id="clip0_44_6533">
<rect width="18" height="18" fill="white" transform="translate(7 7)"/>
</clipPath>
</defs>
</svg>
