<svg width="716" height="18" viewBox="0 0 716 18" fill="none" xmlns="http://www.w3.org/2000/svg">
<path fill-rule="evenodd" clip-rule="evenodd" d="M0 9.36731C1.44253 12.0763 -0.511339 11.8672 4.02771 13.2935C5.49369 13.7541 7.73628 14.3087 9.70938 14.6781C21.5614 16.8974 38.788 17.4287 50.2575 17.5512C68.9285 17.7505 88.7544 17.8916 106.604 16.9535C124.825 15.9959 145.295 16.5974 163.716 16.6188C212.307 16.6749 431.251 19.4675 445 11.1947C442.574 5.21377 428.256 7.21669 420.946 7.19188L223.476 7.09535C199.467 7.05375 129.733 5.95682 110.627 7.59413C73.3602 10.7867 35.465 8.13838 0 9.36731Z" fill="#195AFF"/>
<path fill-rule="evenodd" clip-rule="evenodd" d="M475.001 4.19502C474.893 9.48928 481.578 9.61306 486.528 10.2498C508.808 13.1149 585.43 11.1924 603.993 9.07982C604.444 2.19142 583.229 3.91089 576.319 3.49301C560.39 2.52975 481.45 2.10672 475.001 4.19502Z" fill="#195AFF"/>
<path fill-rule="evenodd" clip-rule="evenodd" d="M626.994 8.23568C631.916 10.6716 660.098 9.85793 665 7.30342C664.464 5.01975 665.388 7.22992 663.891 4.57957C656.273 2.50259 629.118 -0.844541 624 4.86261C625.049 6.42552 623.609 6.56069 626.994 8.23568Z" fill="#195AFF"/>
<path fill-rule="evenodd" clip-rule="evenodd" d="M698.478 1.90922C694.91 1.39689 680.107 -1.20808 679.068 3.30635C677.271 11.1074 711.598 8.77217 716 6.5676C711.239 2.46395 705.912 2.97675 698.478 1.90922Z" fill="#195AFF"/>
</svg>
