<svg width="146" height="148" viewBox="0 0 146 148" fill="none" xmlns="http://www.w3.org/2000/svg">
<path fill-rule="evenodd" clip-rule="evenodd" d="M87.4043 62.0134L116.482 81.0979C118.306 82.5288 119.243 82.8228 119.154 85.5727C112.739 87.3377 96.3919 84.5611 86.6207 84.4956C77.7023 84.4363 80.5849 87.1327 75.651 95.5959C74.2223 98.0466 73.1453 103.193 71.6241 106.537L71.3017 107.215C70.1019 109.796 69.4859 116.934 66.3913 119.612C64.5513 119.09 64.0365 118.421 63.627 116.792C63.235 115.232 63.0381 113.415 62.7168 111.845L56.1027 83.1792C50.4117 81.2804 45.5626 82.1734 39.4125 81.4197C33.1679 80.6545 26.9505 81.6949 21.2997 81.6124C22.05 79.2175 29.2461 75.8193 31.5623 74.0174C35.404 71.0291 45.4077 65.9221 49.931 62.491C50.0314 60.1625 48.3139 49.2571 47.6184 47.164C46.6539 44.2592 44.0237 35.7252 44.2926 32.5454C47.1973 32.8208 53.7995 39.4234 56.4215 41.3067C58.2229 42.6004 60.434 44.0163 62.3392 45.7862C62.8235 46.2358 68.1723 49.7525 68.9199 50.0485C71.1454 49.4042 74.4688 46.6614 75.5729 45.3577L92.8645 33.0381C94.339 31.9007 95.1122 31.4372 96.9408 30.7681C96.9096 34.3696 96.0405 35.0535 94.5114 38.8524C92.2491 44.4729 87.1283 56.0629 87.4043 62.0134ZM94.8253 59.0492C94.7281 55.6474 96.4808 53.3307 97.5696 50.3636L104.102 33.6286C110.934 23.3177 102.412 17.7858 89.5196 27.0195L82.4171 31.7188C77.5193 34.3567 70.1414 40.7364 67.6566 39.8824L49.8857 27.9116C45.6313 24.2959 41.817 24.21 39.1135 29.0188C35.4013 35.6222 42.6746 50.9627 42.3329 58.4295C40.9145 59.1704 39.4954 60.1485 38.0711 61.0981L21.2777 72.0099C20.0829 72.7059 18.6294 73.746 17.4391 75.009C14.8672 77.7379 12.6075 81.3116 14.5592 85.1399C16.0057 87.7339 18.5677 87.4354 22.4211 87.7191C28.45 88.1633 48.6305 88.9002 50.9748 89.4962C51.9446 92.1841 52.5229 97.2771 53.6969 99.3485C54.9956 101.641 57.4596 117.004 58.1933 119.086C58.775 120.736 59.7062 120.504 60.4316 122.86C61.2874 125.64 61.348 124.868 62.6306 126.645C66.1019 126.962 69.4163 126.312 71.6288 123.79C72.1361 123.212 72.52 122.551 72.9949 121.719C77.6127 113.632 78.3197 108.557 80.8375 101.348C81.742 98.7555 83.521 91.7855 84.5989 91.3356C94.4165 91.0144 102.979 92.3616 112.92 92.3928C118.963 92.4116 126.787 94.3509 129.093 90.629C129.635 89.7544 129.444 90.3708 129.58 89.2053C129.595 89.0798 129.577 87.9731 129.566 87.8228C129.406 85.7796 128.557 84.414 127.614 83.024C125.732 80.2485 122.928 77.8292 120.451 75.9226L94.8253 59.0492Z" fill="#195AFF"/>
<path fill-rule="evenodd" clip-rule="evenodd" d="M122.232 147.109C125.705 144.41 121.354 138.792 119.587 136.218C113.548 127.419 111.3 125.193 105.226 117.403C103.649 115.381 98.9909 109.558 97.076 108.775C95.4881 111.104 95.4336 112.211 97.3147 114.97C102.022 121.874 116.384 146.211 122.232 147.109Z" fill="#195AFF"/>
<path fill-rule="evenodd" clip-rule="evenodd" d="M7.77539 139.498C14.1941 142.314 13.1218 142.325 17.7779 137.338L24.5764 128.738C26.5522 126.084 37.1177 112.335 37.1482 110.455C33.8367 109.969 30.3183 113.274 27.957 115.75C24.4462 119.43 8.28307 135.689 7.77539 139.498Z" fill="#195AFF"/>
<path fill-rule="evenodd" clip-rule="evenodd" d="M114.917 56.5756C118.296 56.6501 129.829 52.8031 133.608 51.5278C153.445 44.8335 144.931 39.525 138.982 41.4965L135.936 42.6265C133.111 43.7554 130.648 44.9065 127.799 46.1404L124.138 48.1721C123.005 48.8494 121.398 49.3875 120.151 50.0666L113.708 53.6786C113.649 53.7204 113.483 53.9911 113.441 53.9091C113.397 53.8241 113.26 54.0706 113.171 54.1527C113.673 55.6555 114.061 55.5702 114.917 56.5756Z" fill="#195AFF"/>
<path fill-rule="evenodd" clip-rule="evenodd" d="M15.9468 43.9872C11.9732 41.5134 8.92295 40.4465 5.12178 38.7133C3.17239 37.8245 2.75702 37.4375 0.263685 38.3033C-0.195139 41.286 -0.239476 41.2954 1.6718 42.4669C3.42821 43.5431 2.76281 43.7792 5.06294 44.8175L7.93711 46.3126C11.3002 48.2864 26.4576 55.3963 29.2081 54.9226L29.3728 51.8711C25.2452 48.695 20.416 46.7695 15.9468 43.9872Z" fill="#195AFF"/>
<path fill-rule="evenodd" clip-rule="evenodd" d="M66.0886 1.76461C65.539 5.04871 65.5099 12.4691 66.0247 15.7534C67.5388 25.4131 67.3441 24.948 71.0842 24.6512C72.6656 21.8596 72.2123 23.4272 72.3864 19.2311C72.6021 14.0245 73.0765 4.22414 70.544 0.299805C66.8152 0.670423 67.7904 0.249622 66.0886 1.76461Z" fill="#195AFF"/>
<path fill-rule="evenodd" clip-rule="evenodd" d="M61.3415 81.2805C61.2594 83.4378 62.4262 87.1942 63.1438 89.3303C63.6979 90.9803 63.6081 90.7619 65.5043 90.8324C65.672 87.4171 66.0115 82.734 64.4639 80.2295C62.8831 80.2598 62.0298 80.5246 61.3415 81.2805Z" fill="#195AFF"/>
</svg>
