<svg width="272" height="357" viewBox="0 0 272 357" fill="none" xmlns="http://www.w3.org/2000/svg">
<path fill-rule="evenodd" clip-rule="evenodd" d="M239.186 297.011C242.118 299.753 253.833 319.443 257.114 324.365L265.914 338.741C268.346 343.073 272.647 349.211 271.918 355.808C266.254 357.539 263.06 357.56 257.748 354.703C254.126 352.757 250.674 350.857 247.376 348.945L231.84 340.361C228.993 338.738 228.514 339.662 227.753 336.211C233.404 335.673 237.772 336.578 242.433 338.81C244.78 339.933 245.643 341.206 249.674 341.53C246.633 335.843 223.678 322.171 215.939 316.669C191.304 299.155 153.686 288.433 124.433 282.063C112.813 279.532 79.4597 273.105 68.1112 269.288C52.6074 264.074 34.7411 257.88 23.9827 244.837C14.4555 233.287 15.3066 221.017 26.4591 212.36C51.7957 192.694 113.317 204.867 145.725 209.212C166.583 212.01 206.76 219.768 224.335 205.935C235.239 197.353 236.877 185.167 224.617 175.347C209.77 163.455 173.213 159.413 150.044 159.364C115.628 159.292 51.116 164.199 20.8521 154.448C11.5919 151.465 -4.3216 143.251 1.09901 129.556C3.54512 123.376 7.86147 119.763 12.0212 116.697C14.9292 114.553 23.675 109.647 27.1681 108.556L35.5582 105.477C62.7241 98.4218 76.4173 97.4036 106.182 97.1594C129.459 96.9681 148.34 95.665 170.537 94.5606C178.418 94.1681 183.652 92.5196 189.955 91.0662C197.83 89.2506 201.455 89.0214 207.018 84.5946C211.996 80.6336 215.059 76.2446 210.124 70.2949C197.523 55.1022 157.446 52.5893 139.323 50.4338L74.4405 46.7021C58.6181 44.0409 37.1644 39.2262 25.9342 27.134L21.1105 20.0503C19.6963 17.6227 18.9163 13.2001 19.6215 10.02C20.6198 5.51746 25.7975 -0.407806 31.553 0.0221252C31.2605 2.55124 30.7048 1.69269 29.6032 3.37497C22.496 14.2291 32.0366 23.6348 40.1255 28.6813C48.5301 33.925 63.0377 39.3485 72.915 40.3355C86.4812 41.6909 100.008 43.0019 113.946 43.3859C146.15 44.2731 201.668 43.972 223.699 67.8311C228.185 72.6891 227.599 80.1149 223.173 85.2411C219.516 89.4766 214.57 91.6308 209.271 94.052C199.299 98.6078 183.979 100.694 171.961 101.608C144.928 103.664 115.39 103.91 87.8029 105.097C22.3222 107.913 -7.51327 136.641 30.3645 149.382C41.5558 153.146 58.5306 152.875 71.5138 152.904C100.79 152.968 129.932 152.276 159.241 152.581C183.78 152.836 214.808 157.77 232.476 168.358C259.237 184.395 248.627 209.341 220.42 217.841C187.772 227.679 135.545 213.116 100.493 210.352C88.4686 209.404 33.7099 202.539 31.7159 226.822C29.999 247.728 60.3344 259.051 75.5824 263.419C78.5462 264.268 81.3552 264.603 84.5647 265.472L102.145 269.852C138.937 277.679 172.578 283.642 205.678 300.725C210.912 303.427 215.54 306.122 220.442 308.701C229.735 313.592 244.731 327.005 247.027 327.752C246.505 324.926 244.558 321.299 243.25 318.465L239.054 310.857C238.979 310.714 238.87 310.521 238.799 310.376L235.154 301.186C233.679 296.927 233.263 296.513 239.186 297.011Z" fill="#195AFF"/>
</svg>
