<svg width="160" height="17" viewBox="0 0 160 17" fill="none" xmlns="http://www.w3.org/2000/svg">
  <path d="M149.157 0.807739V14.6539L147.578 13.1154H159.126V16.1924H145.67V0.807739H149.157Z" fill="#151515" />
  <path d="M129.163 12.9513V10.1206H139.83V12.9513H129.163ZM136.814 0.807739L144.014 16.1924H140.302L134.004 2.22312H135.153L128.855 16.1924H125.143L132.343 0.807739H136.814Z" fill="#151515" />
  <path d="M117.701 2.36671H121.167V16.1924H117.701V2.36671ZM111.567 0.807739H127.28V3.88466H111.567V0.807739Z" fill="#151515" />
  <path d="M106.167 0.807739H109.654V16.1924H106.167V0.807739Z" fill="#151515" />
  <path d="M102.145 9.52564C102.131 10.4556 101.946 11.3444 101.591 12.1923C101.249 13.0265 100.757 13.7718 100.114 14.4282C99.4711 15.0709 98.6779 15.5769 97.7343 15.9462C96.7908 16.3154 95.6967 16.5 94.4523 16.5C93.2489 16.5 92.1207 16.3222 91.0677 15.9667C90.0284 15.5974 89.1121 15.0709 88.319 14.3872C87.5395 13.7034 86.9309 12.8692 86.4933 11.8846C86.0557 10.8863 85.8369 9.75812 85.8369 8.5C85.8369 7.24188 86.0557 6.12051 86.4933 5.1359C86.9446 4.13761 87.5668 3.29658 88.36 2.61282C89.1532 1.92906 90.0831 1.4094 91.1497 1.05385C92.2164 0.684616 93.3788 0.5 94.6369 0.5C96.2779 0.5 97.7002 0.759829 98.9036 1.27949C100.107 1.78547 101.078 2.48974 101.816 3.39231C102.569 4.29487 103.033 5.32735 103.211 6.48974H99.7036C99.5668 5.86068 99.266 5.32051 98.801 4.86923C98.3497 4.41795 97.7685 4.06923 97.0574 3.82308C96.36 3.57692 95.5532 3.45385 94.6369 3.45385C93.5566 3.45385 92.6198 3.65214 91.8267 4.04872C91.0472 4.43162 90.4386 4.99915 90.001 5.75128C89.5771 6.50342 89.3651 7.41966 89.3651 8.5C89.3651 9.58034 89.5908 10.5034 90.042 11.2692C90.4933 12.035 91.1361 12.6231 91.9702 13.0333C92.8044 13.4299 93.7891 13.6282 94.9241 13.6282C96.0318 13.6282 97.0027 13.4573 97.8369 13.1154C98.6711 12.7598 99.3275 12.2675 99.8061 11.6385C100.298 10.9957 100.579 10.2368 100.647 9.36154L102.145 9.52564ZM95.3959 10.941V8.41795H103.375V16.1923H100.873L100.401 9.95641L101.119 10.941H95.3959Z" fill="#151515" />
  <path d="M79.9453 0.807739H83.4325V16.1924H79.9453V0.807739Z" fill="#151515" />
  <path d="M68.5574 0.807739C70.3489 0.807739 71.9147 1.12911 73.2549 1.77184C74.6087 2.41458 75.6617 3.3103 76.4139 4.45902C77.166 5.60774 77.5421 6.95475 77.5421 8.50005C77.5421 10.0317 77.166 11.3787 76.4139 12.5411C75.6617 13.6898 74.6087 14.5855 73.2549 15.2283C71.9147 15.871 70.3489 16.1924 68.5574 16.1924H61.2549V0.807739H68.5574ZM64.7215 14.818L62.9574 13.1154H68.8241C69.8634 13.1154 70.7728 12.924 71.5523 12.5411C72.3455 12.1582 72.954 11.618 73.378 10.9206C73.8019 10.2231 74.0139 9.41629 74.0139 8.50005C74.0139 7.57013 73.8019 6.7633 73.378 6.07954C72.954 5.3821 72.3455 4.84193 71.5523 4.45902C70.7728 4.07612 69.8634 3.88466 68.8241 3.88466H62.9574L64.7215 2.1821V14.818Z" fill="#151515" />
  <path d="M41.4 7.63851H47.3282C48.1077 7.63851 48.7231 7.46073 49.1744 7.10518C49.6393 6.73594 49.8718 6.22996 49.8718 5.58723C49.8718 4.94449 49.6393 4.44535 49.1744 4.08979C48.7231 3.73423 48.1077 3.55646 47.3282 3.55646H40.8872L42.4667 1.77184V16.1924H38.9795V0.807739H47.7385C48.8598 0.807739 49.8444 1.01287 50.6923 1.42312C51.5402 1.81971 52.2034 2.37355 52.6821 3.08466C53.1607 3.79577 53.4 4.62996 53.4 5.58723C53.4 6.53082 53.1607 7.35817 52.6821 8.06928C52.2034 8.78039 51.5402 9.34107 50.6923 9.75133C49.8444 10.1479 48.8598 10.3462 47.7385 10.3462H41.4V7.63851ZM44.0667 8.99236H48.0462L53.8513 16.1924H49.7692L44.0667 8.99236Z" fill="#151515" />
  <path d="M33.5396 5.07436H30.1344C30.0524 4.4453 29.7789 3.93932 29.3139 3.55641C28.8627 3.15983 28.2199 2.96154 27.3857 2.96154C26.8934 2.96154 26.4695 3.02991 26.1139 3.16667C25.7584 3.28974 25.478 3.47436 25.2729 3.72051C25.0815 3.96667 24.9857 4.26752 24.9857 4.62308C24.9857 4.86923 25.0678 5.1359 25.2319 5.42308C25.4097 5.71026 25.69 6.02479 26.0729 6.36667L37.6011 16.1923H33.2524L23.4473 7.8641C22.8045 7.30342 22.2917 6.74274 21.9088 6.18205C21.5396 5.62137 21.355 5.0265 21.355 4.39744C21.355 3.61795 21.5874 2.94103 22.0524 2.36667C22.5174 1.77863 23.1943 1.32051 24.0832 0.992308C24.9721 0.664103 26.0319 0.5 27.2627 0.5C28.5618 0.5 29.6695 0.698291 30.5857 1.09487C31.502 1.49145 32.2062 2.03162 32.6986 2.71539C33.2045 3.39915 33.4849 4.18547 33.5396 5.07436ZM33.0678 7.8641H36.678L32.1857 13.1564C31.543 13.9222 30.8866 14.5581 30.2165 15.0641C29.5464 15.5564 28.8216 15.9188 28.0421 16.1513C27.2763 16.3838 26.3943 16.5 25.396 16.5C24.1515 16.5 23.0849 16.3017 22.196 15.9051C21.3071 15.4949 20.6233 14.9547 20.1447 14.2846C19.6661 13.6009 19.4268 12.835 19.4268 11.9872C19.4268 11.2214 19.625 10.5239 20.0216 9.89487C20.4319 9.26581 21.0609 8.73932 21.9088 8.31538C22.7567 7.87778 23.8439 7.58376 25.1703 7.43333L25.9293 8.78718C24.9447 9.00598 24.1857 9.3547 23.6524 9.83333C23.1327 10.312 22.8729 10.8863 22.8729 11.5564C22.8729 11.9803 22.9892 12.3701 23.2216 12.7256C23.4678 13.0812 23.8165 13.3684 24.2678 13.5872C24.7191 13.7923 25.2456 13.8949 25.8473 13.8949C26.8729 13.8949 27.7276 13.6966 28.4114 13.3C29.0951 12.8897 29.69 12.3496 30.196 11.6795L33.0678 7.8641Z" fill="#151515" />
  <path d="M16.3077 9.52564C16.294 10.4556 16.1094 11.3444 15.7538 12.1923C15.412 13.0265 14.9197 13.7718 14.2769 14.4282C13.6342 15.0709 12.841 15.5769 11.8974 15.9462C10.9538 16.3154 9.85983 16.5 8.61538 16.5C7.41197 16.5 6.28376 16.3222 5.23077 15.9667C4.19145 15.5974 3.27521 15.0709 2.48205 14.3872C1.70256 13.7034 1.09402 12.8692 0.65641 11.8846C0.218803 10.8863 0 9.75812 0 8.5C0 7.24188 0.218803 6.12051 0.65641 5.1359C1.10769 4.13761 1.72991 3.29658 2.52308 2.61282C3.31624 1.92906 4.24615 1.4094 5.31282 1.05385C6.37949 0.684616 7.54188 0.5 8.8 0.5C10.441 0.5 11.8632 0.759829 13.0667 1.27949C14.2701 1.78547 15.241 2.48974 15.9795 3.39231C16.7316 4.29487 17.1966 5.32735 17.3744 6.48974H13.8667C13.7299 5.86068 13.4291 5.32051 12.9641 4.86923C12.5128 4.41795 11.9316 4.06923 11.2205 3.82308C10.5231 3.57692 9.71624 3.45385 8.8 3.45385C7.71966 3.45385 6.7829 3.65214 5.98974 4.04872C5.21026 4.43162 4.60171 4.99915 4.1641 5.75128C3.74017 6.50342 3.5282 7.41966 3.5282 8.5C3.5282 9.58034 3.75385 10.5034 4.20513 11.2692C4.65641 12.035 5.29914 12.6231 6.13333 13.0333C6.96752 13.4299 7.95214 13.6282 9.08718 13.6282C10.1949 13.6282 11.1658 13.4573 12 13.1154C12.8342 12.7598 13.4906 12.2675 13.9692 11.6385C14.4615 10.9957 14.7419 10.2368 14.8103 9.36154L16.3077 9.52564ZM9.55897 10.941V8.41795H17.5385V16.1923H15.0359L14.5641 9.95641L15.282 10.941H9.55897Z" fill="#151515" />
</svg>