<svg width="14" height="14" viewBox="0 0 14 14" fill="none" xmlns="http://www.w3.org/2000/svg">
<path d="M8.2804 7L13.7345 1.54589C13.819 1.4618 13.8859 1.36179 13.9315 1.25164C13.9771 1.1415 14.0003 1.02342 13.9999 0.904227C14.0014 0.78531 13.9787 0.667337 13.933 0.557515C13.8874 0.447692 13.8198 0.348325 13.7345 0.265483C13.6517 0.180157 13.5523 0.112614 13.4425 0.0669799C13.3327 0.021346 13.2147 -0.00142132 13.0958 6.86829e-05C12.9766 -0.000319945 12.8585 0.0229383 12.7484 0.0684969C12.6382 0.114056 12.5382 0.18101 12.4541 0.265483L7 5.7196L1.54589 0.265483C1.4618 0.18101 1.36179 0.114056 1.25164 0.0684969C1.1415 0.0229383 1.02342 -0.000319945 0.904227 6.86829e-05C0.78531 -0.00142132 0.667337 0.021346 0.557515 0.0669799C0.447692 0.112614 0.348325 0.180157 0.265483 0.265483C0.180157 0.348325 0.112614 0.447692 0.0669799 0.557515C0.021346 0.667337 -0.00142132 0.78531 6.86829e-05 0.904227C-0.000319945 1.02342 0.0229383 1.1415 0.0684969 1.25164C0.114056 1.36179 0.18101 1.4618 0.265483 1.54589L5.7196 7L0.265483 12.4541C0.18101 12.5382 0.114056 12.6382 0.0684969 12.7484C0.0229383 12.8585 -0.000319945 12.9766 6.86829e-05 13.0958C-0.00142132 13.2147 0.021346 13.3327 0.0669799 13.4425C0.112614 13.5523 0.180157 13.6517 0.265483 13.7345C0.348325 13.8198 0.447692 13.8874 0.557515 13.933C0.667337 13.9787 0.78531 14.0014 0.904227 13.9999C1.02342 14.0003 1.1415 13.9771 1.25164 13.9315C1.36179 13.8859 1.4618 13.819 1.54589 13.7345L7 8.2804L12.4541 13.7345C12.5382 13.819 12.6382 13.8859 12.7484 13.9315C12.8585 13.9771 12.9766 14.0003 13.0958 13.9999C13.3353 13.9992 13.5649 13.9037 13.7343 13.7343C13.9037 13.5649 13.9992 13.3353 13.9999 13.0958C14.0003 12.9766 13.9771 12.8585 13.9315 12.7484C13.8859 12.6382 13.819 12.5382 13.7345 12.4541L8.2804 7Z" fill="#9D9D9D"/>
</svg>
