<svg width="30" height="30" viewBox="0 0 30 30" fill="none" xmlns="http://www.w3.org/2000/svg">
<path d="M19.3502 22.941C17.6709 22.9199 16.0685 22.2346 14.8945 21.0352L8.97095 15.1188C6.61202 12.7732 6.41283 9.16057 8.49916 7.06628L9.84113 5.76783C10.0046 5.60668 10.2001 5.4815 10.415 5.40034C10.6299 5.31919 10.8594 5.28385 11.0887 5.29661C11.5493 5.33186 11.9814 5.53278 12.3049 5.86207L15.2719 8.82548C15.6138 9.14432 15.8156 9.58528 15.8333 10.0522C15.851 10.519 15.6831 10.974 15.3662 11.3177L14.7162 11.9669C14.7162 11.9669 14.7162 12.124 14.8001 12.2496L17.7671 15.2131C17.8929 15.3282 18.0292 15.3282 18.0502 15.2968L18.7002 14.6476C19.0443 14.3311 19.4998 14.1634 19.9672 14.1811C20.4347 14.1988 20.8762 14.4003 21.1954 14.7418L24.1624 17.7053C24.4926 18.0242 24.6868 18.4582 24.7043 18.9167C24.7219 19.3752 24.5616 19.8228 24.2568 20.166L22.9567 21.4645C22.4837 21.9373 21.9213 22.3113 21.3021 22.5648C20.6829 22.8183 20.0194 22.9462 19.3502 22.941ZM9.62096 8.17626C8.13222 9.69461 8.3419 12.2706 10.0823 14.0088L16.0058 19.9252C17.7461 21.6635 20.3672 21.8729 21.8454 20.3859L23.1455 19.1189C23.1455 19.1189 23.1455 18.9618 23.0511 18.8362L20.0841 15.8728C20.0212 15.8099 19.8744 15.7157 19.8115 15.789L19.1615 16.4277C18.9915 16.5867 18.7918 16.7106 18.5739 16.7924C18.3559 16.8743 18.124 16.9124 17.8913 16.9046C17.6585 16.8968 17.4297 16.8433 17.2177 16.7471C17.0057 16.6509 16.8147 16.5139 16.6558 16.344L13.6888 13.3596C13.5186 13.2009 13.3815 13.0102 13.2852 12.7984C13.1889 12.5867 13.1353 12.3581 13.1275 12.1256C13.1197 11.8932 13.1579 11.6615 13.2398 11.4438C13.3217 11.2261 13.4458 11.0267 13.6049 10.8569L14.2444 10.2077C14.2444 10.2077 14.2444 10.0506 14.1606 9.93546L11.1936 6.97204C11.1202 6.89874 10.9839 6.81497 10.9105 6.8778L9.62096 8.17626Z" fill="#151515"/>
</svg>
