<svg width="61" height="61" viewBox="0 0 61 61" fill="none" xmlns="http://www.w3.org/2000/svg">
<rect x="0.581421" width="60.2791" height="60.2791" rx="30.1395" fill="white"/>
<path d="M44.7055 29.2785L40.6165 28.11C38.7751 27.5909 37.0977 26.6079 35.7449 25.2551C34.3921 23.9023 33.4091 22.2249 32.89 20.3835L31.7215 16.2945C31.6627 16.1515 31.5627 16.0291 31.4343 15.943C31.3058 15.8569 31.1546 15.8109 31 15.8109C30.8453 15.8109 30.6942 15.8569 30.5657 15.943C30.4372 16.0291 30.3372 16.1515 30.2785 16.2945L29.11 20.3835C28.5908 22.2249 27.6078 23.9023 26.255 25.2551C24.9022 26.6079 23.2249 27.5909 21.3835 28.11L17.2945 29.2785C17.1375 29.3231 16.9993 29.4177 16.9009 29.5479C16.8025 29.6781 16.7493 29.8368 16.7493 30C16.7493 30.1632 16.8025 30.322 16.9009 30.4522C16.9993 30.5824 17.1375 30.677 17.2945 30.7215L21.3835 31.89C23.2249 32.4092 24.9022 33.3922 26.255 34.745C27.6078 36.0978 28.5908 37.7752 29.11 39.6165L30.2785 43.7055C30.323 43.8625 30.4176 44.0007 30.5478 44.0991C30.678 44.1975 30.8368 44.2508 31 44.2508C31.1632 44.2508 31.3219 44.1975 31.4521 44.0991C31.5824 44.0007 31.6769 43.8625 31.7215 43.7055L32.89 39.6165C33.4091 37.7752 34.3921 36.0978 35.7449 34.745C37.0977 33.3922 38.7751 32.4092 40.6165 31.89L44.7055 30.7215C44.8625 30.677 45.0007 30.5824 45.0991 30.4522C45.1975 30.322 45.2507 30.1632 45.2507 30C45.2507 29.8368 45.1975 29.6781 45.0991 29.5479C45.0007 29.4177 44.8625 29.3231 44.7055 29.2785Z" fill="#151515"/>
</svg>
