<svg width="148" height="127" viewBox="0 0 148 127" fill="none" xmlns="http://www.w3.org/2000/svg">
<path d="M98.4922 72.9451C99.7052 73.8476 100.864 74.8206 101.964 75.8592C110.679 85.1257 110.243 97.0149 100.715 105.407C98.0813 107.787 95.1519 109.814 91.9993 111.439C69.906 122.44 46.7813 124.552 22.9013 118.812C17.9102 117.621 13.2617 115.287 9.31996 111.993C4.96322 108.551 1.90276 103.725 0.64106 98.308C-0.620636 92.891 -0.00857201 87.2046 2.37676 82.1826C4.99043 76.4989 8.89569 71.5088 13.7793 67.6125C30.4546 53.7855 49.5993 47.7389 71.1552 49.9827C78.5997 50.6738 85.7471 53.2507 91.9267 57.4717C94.5815 59.3321 96.9923 61.5202 99.1023 63.9846C101.862 67.3502 101.615 69.0986 98.4922 72.9451ZM94.2507 69.3609L94.8463 68.6761C93.8731 67.5979 92.9725 66.4615 91.9412 65.4853C87.876 61.8217 82.9132 59.3076 77.5609 58.2002C52.8675 52.8967 31.6602 59.5552 13.8229 77.2142C11.5837 79.5752 9.78334 82.3186 8.50654 85.3151C5.20924 92.6001 6.57463 99.2441 11.9636 105.087C14.7957 108.225 18.4985 110.442 22.5963 111.454C28.4194 112.991 34.3547 114.063 40.3465 114.659C56.0093 116.07 71.767 113.332 86.0438 106.719C89.9544 104.859 93.587 102.461 96.8363 99.5938C102.501 94.538 102.966 87.4861 97.9548 81.7892C95.2518 78.8116 92.0943 76.2837 88.6003 74.3001C78.4761 68.3716 66.6544 66.0411 55.0463 67.6854C53.8531 67.9865 52.6085 68.0213 51.4004 67.7873C50.8558 67.6047 50.3589 67.3018 49.9466 66.9008C49.5343 66.4999 49.2171 66.0111 49.0183 65.4707C49.0068 64.893 49.1326 64.3208 49.3852 63.8014C49.6377 63.2821 50.0099 62.8304 50.4708 62.4838C51.8297 61.7743 53.3066 61.32 54.8285 61.1434C67.4221 58.7685 79.0861 61.7845 90.2853 67.3794C91.6071 68.0933 92.9434 68.7198 94.2507 69.3609Z" fill="#195AFF"/>
<path d="M123.445 59.7798L130.929 61.215C132.58 61.5452 134.247 61.8035 135.841 62.2915C136.618 62.4603 137.297 62.929 137.73 63.5957C138.163 64.2623 138.315 65.0729 138.153 65.851C138.134 66.236 138.036 66.613 137.868 66.9596C137.699 67.3063 137.462 67.6154 137.171 67.8685C136.88 68.1217 136.541 68.3137 136.175 68.4331C135.808 68.5526 135.421 68.597 135.037 68.5637C133.66 68.544 132.287 68.4241 130.929 68.2049C125.514 67.3437 120.099 66.3821 114.684 65.5496C110.045 64.8463 108.565 62.435 110.633 58.1722C113.219 52.8186 116.077 47.5942 118.878 42.3841C119.74 40.7622 121.104 39.6427 122.986 40.59C124.867 41.5373 124.997 43.073 124.25 44.8959C123.503 46.7187 122.813 48.5559 121.865 51.1537C122.943 50.7422 123.994 50.2628 125.011 49.7184C129.866 46.5465 134.692 43.3314 139.532 40.1307C140.38 39.4842 141.295 38.9308 142.261 38.4801C143.942 37.863 145.708 37.8199 146.671 39.6571C147.633 41.4942 146.671 42.7142 145.048 43.7907C138.728 48.0966 132.466 52.4024 126.189 56.7944C125.198 57.469 124.25 58.2297 123.316 58.8899L123.445 59.7798Z" fill="#195AFF"/>
<path d="M87.4652 25.8392C88.6971 24.7431 89.9144 23.6326 91.1756 22.5653C92.4369 21.498 93.9622 20.0701 95.4728 19.0028C95.7772 18.7489 96.1312 18.5587 96.513 18.4439C96.8947 18.3291 97.2963 18.2922 97.6931 18.3354C98.0899 18.3786 98.4736 18.5011 98.8206 18.6952C99.1676 18.8893 99.4707 19.151 99.7112 19.4644C100.266 20.0268 100.576 20.7794 100.576 21.5629C100.576 22.3463 100.266 23.099 99.7112 23.6614C99.1339 24.4034 98.5015 25.1024 97.8193 25.7527C93.1849 30.3247 88.5211 34.8679 83.9013 39.4688C80.2055 43.1466 77.0963 42.7139 75.6297 37.8246C74.0018 32.3872 72.9312 26.7767 71.7579 21.2239C71.3913 19.5076 71.6699 17.7481 73.8258 17.1567C75.6444 16.6519 76.759 17.575 77.6829 20.1711C78.0936 21.4403 78.4749 22.7095 79.1495 24.9306C79.7613 23.8264 80.3002 22.6846 80.7628 21.5124C82.2294 16.4933 83.6227 11.4164 85.0453 6.41172C85.3855 4.93527 85.8466 3.48828 86.4239 2.08488C86.6702 1.33746 87.2036 0.714168 87.9104 0.347784C88.6171 -0.0185988 89.4414 -0.0990968 90.2077 0.123397C92.2609 0.743577 92.5982 2.33007 92.1142 4.20503C90.7063 9.71454 89.2886 15.224 87.8611 20.7335C87.4505 22.3201 87.0398 23.921 86.6439 25.5075L87.4652 25.8392Z" fill="#195AFF"/>
<path d="M123.928 111.823C125.086 115.023 125.998 117.438 126.823 119.881C127.261 121.013 127.581 122.186 127.779 123.382C127.938 124.81 127.446 126.396 125.81 126.482C124.515 126.42 123.274 125.955 122.263 125.153C121.626 124.682 121.453 123.553 121.134 122.71C119.542 118.424 117.949 114.137 116.4 109.851C114.851 105.565 116.4 102.321 120.743 101.478C125.854 100.464 131.08 99.9352 136.262 99.2208C137.003 98.996 137.794 98.996 138.535 99.2208C139.606 99.878 140.952 100.721 141.3 101.778C141.409 102.151 141.432 102.543 141.367 102.926C141.302 103.308 141.15 103.671 140.924 103.988C140.697 104.305 140.401 104.568 140.058 104.757C139.715 104.945 139.333 105.055 138.94 105.079C136.537 105.522 134.076 105.579 130.848 105.879C131.577 106.538 132.362 107.136 133.193 107.665C136.769 109.437 140.431 111.123 143.964 112.908C144.963 113.297 145.845 113.932 146.526 114.752C146.79 115.175 146.96 115.648 147.024 116.141C147.089 116.633 147.048 117.134 146.902 117.609C146.624 118.024 146.251 118.37 145.814 118.618C145.377 118.866 144.887 119.01 144.383 119.038C143.03 118.845 141.718 118.429 140.504 117.809C136.161 115.995 131.731 114.109 127.33 112.323C126.211 112.069 125.074 111.902 123.928 111.823Z" fill="#195AFF"/>
</svg>
