<svg width="248" height="61" viewBox="0 0 248 61" fill="none" xmlns="http://www.w3.org/2000/svg">
<path fill-rule="evenodd" clip-rule="evenodd" d="M74.7286 30.2734C75.4415 30.7966 75.2536 31.0192 75.772 32.3174L77.2612 34.5511C77.986 35.6066 77.6584 35.6845 78.5792 36.904C81.1168 40.265 84.414 43.5391 88.4108 45.7392C94.7118 49.207 95.0731 49.8368 98.2676 47.8348C101.687 45.6925 104.001 44.5951 106.875 41.3772C112.173 35.4471 113.352 25.9293 108.437 19.438C103.63 13.0869 97.9978 9.35064 88.8902 9.33891C84.9544 9.33365 80.5085 10.9584 78.1487 12.7317C71.3676 17.827 73.7959 24.4468 74.7286 30.2734ZM7.56299 36.1812C12.9888 39.8065 16.9426 41.9447 23.0381 44.5318C28.7755 46.9671 30.3009 48.111 37.8531 50.0962C56.7009 55.05 67.9809 55.8617 86.4962 52.4554C84.3688 51.3048 81.352 49.6233 79.6497 48.1255C78.5423 47.151 77.559 46.2263 76.5617 45.2882C57.118 26.9952 74.4114 -2.9386 100.743 3.79093C116.424 7.79852 122.39 24.3184 113.235 39.5366C108.661 47.1401 103.597 49.483 102.708 51.1263C106.337 52.7668 116.455 52.8877 120.971 52.2246C147.843 48.2782 167.39 32.0999 195.62 22.7802L203.207 20.3967C210.698 18.757 216.413 17.6798 224.69 17.546C224.108 15.8549 225.016 17.14 223.414 15.9494L219.386 13.155C217.385 11.8376 215.357 10.7382 213.47 9.52554C211.611 8.33127 209.592 7.14408 207.549 5.83335C206.785 5.34307 206.876 5.36835 205.828 4.77152C205.541 4.60775 205.295 4.47268 204.929 4.27313C202.992 3.21573 203.624 3.29114 201.858 1.9883L202.681 0.00836563C204.188 -0.122444 207.909 1.31081 209.262 2.14985C215.359 5.93283 245.929 20.0093 247.906 24.3529C248.496 28.0027 246.246 30.353 242.898 30.6781C239.602 30.9986 236.429 31.6168 233.289 32.0584C228.149 32.7816 217.392 35.4968 213.879 35.5021C214.243 33.5844 213.637 34.8363 214.631 33.5094C216.419 31.1247 228.343 28.4792 231.574 27.6359C234.856 26.7791 236.971 26.9772 238.07 25.7193C237.431 24.7965 238.35 25.0371 236.342 24.5499L219.589 24.2025C205.773 24.394 186.031 30.9082 174.241 36.5902C165.482 40.8115 143.591 51.9391 134.595 54.4574C132.001 55.1836 129.908 56.0326 127.195 56.6304C118.971 58.4426 108.906 58.8455 100.625 57.3421C97.469 56.7693 95.3606 55.5435 92.6164 56.6921C90.688 57.499 87.12 58.6287 85.2445 59.0519C82.4509 59.6821 80.6464 60.5072 77.4815 60.7015C61.977 61.653 49.2896 60.45 35.0402 55.3458C20.339 50.08 15.6305 47.7554 4.30761 38.0394L0.717523 35.2886C-0.310798 34.0175 0.0527275 34.1257 0.103444 33.0062C0.593159 32.6124 1.10316 32.2225 1.60363 31.8247L7.56299 36.1812Z" fill="#195AFF"/>
</svg>
