<svg width="84" height="109" viewBox="0 0 84 109" fill="none" xmlns="http://www.w3.org/2000/svg">
<path fill-rule="evenodd" clip-rule="evenodd" d="M19.424 49.5052C24.2276 47.6233 20.2196 50.3295 26.997 45.8848C33.4961 41.6232 37.0131 36.9829 40.2457 29.3952C41.1131 27.359 41.6723 26.0866 42.2593 23.9162C42.783 21.9778 43.2094 20.0837 44.0845 18.573C44.8813 22.1437 45.4057 25.9136 46.4494 29.5398C47.025 31.5393 49.349 36.3504 50.5413 38.4958C51.8525 40.8557 54.3073 43.9869 56.4185 45.8246C58.2903 47.4535 64.1866 51.0097 64.3163 50.7991C64.3756 50.7025 64.5363 50.9375 64.6422 51.0126C64.4936 51.8327 64.7849 52.3206 63.0917 53.4079C61.3677 54.515 61.3936 54.081 58.7917 56.06L58.1084 56.6279C50.9789 62.2687 50.1806 66.5764 47.0698 74.4977L45.9024 78.1911C44.5235 81.7377 45.0452 82.4032 44.3074 84.9322C42.4872 84.3914 43.7879 85.6671 42.8918 83.8792C41.9303 81.9614 40.8881 73.5583 34.1353 63.8965C30.6034 58.8431 25.463 54.5981 19.7414 52.3511L18.8368 52.0141C18.1662 51.7113 18.0603 51.6181 17.4897 51.282L16.4264 50.5593L19.424 49.5052ZM5.90625 51.0126C6.10276 53.1221 7.46604 53.0446 9.2653 53.6466C12.3741 54.6869 14.26 55.0874 17.8161 56.6999C18.557 57.0358 19.3442 57.316 19.9044 57.5989C24.426 59.8817 29.3641 67.2778 31.5485 72.275C32.7104 74.9335 33.8571 77.605 34.9588 80.7535L36.8678 87.584C37.1713 88.9215 37.1843 87.9725 37.5614 89.6785L40.6349 104.336C41.1213 105.994 41.6219 107.242 41.881 108.938L44.8081 108.834C45.0138 105.018 45.4743 106.441 46.1053 104.387C46.4835 103.156 46.1641 103.429 46.7404 102.113L49.318 90.8889C50.1609 84.4879 50.8575 85.9156 51.487 81.5393C51.9224 78.5144 54.6879 70.8003 55.9804 68.9198C59.064 64.4345 59.1424 61.3907 66.7682 57.0549C74.3452 52.7465 74.6484 54.1572 78.75 52.4874L78.7335 50.7458C76.7733 49.6805 67.3445 48.0339 63.1354 44.4823C58.7367 40.7704 56.3978 37.4538 54.0743 31.6681C52.678 28.1904 49.4292 18.7926 48.8958 15.2071C48.3897 11.8039 47.5787 9.49758 46.9677 6.40455C45.8725 0.860689 46.4052 4.24049 45.6164 2.30565C44.6556 -0.052209 46.0995 -0.142077 42.6246 0.0811244C39.2375 7.21972 37.3546 27.9022 26.6988 39.3625C18.26 48.4392 10.2925 46.9042 5.90625 51.0126Z" fill="#195AFF"/>
<path fill-rule="evenodd" clip-rule="evenodd" d="M2.09478 98.4147C6.6447 98.7808 9.26208 94.7062 13.0726 90.1393C14.6052 88.3025 20.8607 80.9002 21 79.2503C19.705 78.474 18.9247 78.6228 17.787 79.5476L5.48553 91.9409C4.80105 92.7738 4.01871 93.6606 3.22572 94.6087C2.1209 95.9285 1.74588 96.333 2.09478 98.4147Z" fill="#195AFF"/>
<path fill-rule="evenodd" clip-rule="evenodd" d="M66.9375 28.78C69.7915 29.0256 70.1152 28.995 72.9403 26.1435C74.1084 24.9646 75.8416 22.9188 77.1357 21.7074C90.8413 8.87157 80.9323 7.61548 74.0367 18.6615L70.2862 23.5384C69.2268 24.9148 67.2612 26.7842 66.9375 28.78Z" fill="#195AFF"/>
<path fill-rule="evenodd" clip-rule="evenodd" d="M0 74.5004C0.198777 75.6578 0.0986433 75.6224 1.58493 75.9784C5.07296 76.8129 16.0473 73.8613 17.7287 72.7512C18.4117 72.3002 17.9509 72.6289 18.375 72.0864C17.6131 71.597 19.1897 71.8739 17.0579 71.5656C14.7678 71.2348 1.76973 73.3715 0 74.5004Z" fill="#195AFF"/>
</svg>
